<?xml version="1.0" encoding="UTF-8"?>
<svg version="1.1" xmlns="http://www.w3.org/2000/svg" width="121" height="255">
<path d="M0 0 C39.93 0 79.86 0 121 0 C121 84.15 121 168.3 121 255 C81.07 255 41.14 255 0 255 C0 170.85 0 86.7 0 0 Z " fill="#F3F3F0" transform="translate(0,0)"/>
<path d="M0 0 C4.77091459 1.78125295 9.25812887 4.06568081 13.80078125 6.3515625 C15.0553437 6.97990494 15.0553437 6.97990494 16.33525085 7.62094116 C18.99528201 8.95374604 21.65390548 10.28933211 24.3125 11.625 C26.12035042 12.53143409 27.92829212 13.43768615 29.73632812 14.34375 C34.1586124 16.56039246 38.57963664 18.77952957 43 21 C42.17702617 25.06293128 40.53734586 26.83703093 37.5625 29.75 C36.75941406 30.54921875 35.95632812 31.3484375 35.12890625 32.171875 C33 34 33 34 31 34 C31.00276538 34.64807145 31.00553076 35.2961429 31.00837994 35.96385288 C31.07468927 51.74706523 31.12430461 67.530229 31.15543652 83.31354618 C31.17089259 90.94630505 31.19195792 98.57897082 31.22631836 106.21166992 C31.25625941 112.86584567 31.27558416 119.51995399 31.28226548 126.17419523 C31.28616981 129.69621756 31.29531897 133.21804701 31.31719017 136.7400074 C31.34143173 140.67574755 31.34196697 144.61130055 31.34057617 148.54711914 C31.351362 149.709496 31.36214783 150.87187286 31.3732605 152.06947327 C31.34765699 158.76352515 31.24703379 164.70868847 26.28125 169.7421875 C25.6934375 170.11601562 25.105625 170.48984375 24.5 170.875 C23.9121875 171.26429688 23.324375 171.65359375 22.71875 172.0546875 C18.81676324 174.20078022 15.42557852 174.14316757 11.0534668 174.17700195 C10.35065582 174.18357315 9.64784485 174.19014435 8.92373657 174.19691467 C6.59889617 174.21661792 4.27412027 174.22830345 1.94921875 174.23828125 C0.75651336 174.24439454 0.75651336 174.24439454 -0.46028709 174.25063133 C-4.6687532 174.27147919 -8.87718681 174.28578656 -13.08569336 174.29516602 C-17.42689154 174.30622911 -21.76757697 174.3406311 -26.10859394 174.38033772 C-29.45182737 174.40651225 -32.79493873 174.41485856 -36.13826561 174.41844749 C-37.73821667 174.42331115 -39.33816236 174.43491894 -40.93801308 174.45348549 C-43.18084728 174.47789656 -45.42235617 174.47690917 -47.6652832 174.4699707 C-48.93974808 174.47583694 -50.21421295 174.48170319 -51.52729797 174.48774719 C-56.53943798 173.78378319 -60.89491686 171.03660808 -64 167 C-66.44696726 161.41295491 -66.29953027 156.0544372 -66.30297852 150.06933594 C-66.31141785 148.97927246 -66.31985718 147.88920898 -66.32855225 146.76611328 C-66.3542908 143.17219599 -66.36645942 139.57836071 -66.37890625 135.984375 C-66.39508144 133.48666738 -66.41226146 130.98896608 -66.43040466 128.49127197 C-66.47140081 122.59357782 -66.50442488 116.69588609 -66.53287882 110.79811883 C-66.58699066 99.5988392 -66.65494239 88.39966184 -66.73081779 77.20050812 C-66.75370581 73.51663542 -66.76993879 69.83277462 -66.78553772 66.14886475 C-66.79893898 63.90360379 -66.8125533 61.65834409 -66.82641602 59.41308594 C-66.82902939 58.38242004 -66.83164276 57.35175415 -66.83433533 56.28985596 C-66.84123383 55.35339233 -66.84813232 54.41692871 -66.85523987 53.4520874 C-66.85909478 52.63579739 -66.8629497 51.81950737 -66.86692142 50.97848129 C-66.87721042 48.92376322 -66.87721042 48.92376322 -68 47 C-69.64363134 46.27840576 -71.31050386 45.60648579 -73 45 C-70.49501553 42.49501553 -68.27751466 41.92193497 -64.9375 40.75 C-55.21757493 37.07421797 -45.83925407 31.67850814 -41 22 C-40.34 22 -39.68 22 -39 22 C-38.443125 23.0725 -37.88625 24.145 -37.3125 25.25 C-35.34826253 28.65975026 -33.41493428 30.917723 -30 33 C-26.73554402 33.46480665 -25.38371058 33.25351189 -22.60546875 31.41796875 C-16.50959906 25.79479978 -11.58162888 19.90815758 -7 13 C-6.49339844 12.24074219 -5.98679687 11.48148438 -5.46484375 10.69921875 C-3.23313091 7.24429305 -1.34486243 3.91232706 0 0 Z " fill="#D2E389" transform="translate(76,78)"/>
<path d="M0 0 C1.3303125 0.00773438 1.3303125 0.00773438 2.6875 0.015625 C3.574375 0.01046875 4.46125 0.0053125 5.375 0 C7.6875 0.265625 7.6875 0.265625 9.6875 2.265625 C9.87523265 4.73511572 9.93946303 7.09142483 9.91455078 9.56103516 C9.91484283 10.31235214 9.91513489 11.06366913 9.91543579 11.8377533 C9.91403987 14.32684792 9.89846658 16.81564503 9.8828125 19.3046875 C9.8790833 21.02818641 9.87623589 22.75168743 9.87423706 24.47518921 C9.8665933 29.01592847 9.84693848 33.5565402 9.8248291 38.097229 C9.80438664 42.72886428 9.79523877 47.36052013 9.78515625 51.9921875 C9.76369325 61.08338943 9.72954839 70.17449662 9.6875 79.265625 C5.74439932 77.98052586 2.09118741 76.5832724 -1.60546875 74.69921875 C-2.56517578 74.21388672 -3.52488281 73.72855469 -4.51367188 73.22851562 C-5.49916016 72.72513672 -6.48464844 72.22175781 -7.5 71.703125 C-9.47175156 70.70004259 -11.4443696 69.69866107 -13.41796875 68.69921875 C-14.71963989 68.03490845 -14.71963989 68.03490845 -16.04760742 67.35717773 C-18.38975292 66.16931584 -18.38975292 66.16931584 -21.3125 65.265625 C-21.663125 66.19375 -22.01375 67.121875 -22.375 68.078125 C-27.15834056 79.05556095 -35.91877425 91.7912 -46.3125 98.265625 C-50.16694197 98.48380096 -52.37833481 98.08165646 -55.3203125 95.51171875 C-60.3125 90.02435476 -60.3125 90.02435476 -60.3125 86.265625 C-60.9725 86.265625 -61.6325 86.265625 -62.3125 86.265625 C-62.580625 86.84570312 -62.84875 87.42578125 -63.125 88.0234375 C-68.26624388 97.73091772 -77.16507409 102.96886658 -87.3125 106.265625 C-87.56790636 96.36485077 -87.76308332 86.46486557 -87.88243389 76.5614624 C-87.93973323 71.96215085 -88.01737192 67.36510004 -88.14233398 62.76708984 C-88.26228584 58.32538856 -88.3277093 53.88585388 -88.35614967 49.44265747 C-88.37640162 47.75194177 -88.41595588 46.06133865 -88.47553062 44.37155151 C-88.90728169 31.61221272 -88.90728169 31.61221272 -85.38191223 26.42492676 C-77.7250277 19.87287209 -68.97450531 20.22107547 -59.48828125 20.484375 C-57.88977413 20.49932874 -56.2912299 20.51070093 -54.69267273 20.51867676 C-50.52096157 20.5489666 -46.35154173 20.62731834 -42.1807251 20.71630859 C-37.91051215 20.79870852 -33.63992243 20.83480264 -29.36914062 20.875 C-21.01588507 20.96034492 -12.66447894 21.09655835 -4.3125 21.265625 C-4.32297363 20.70053223 -4.33344727 20.13543945 -4.34423828 19.55322266 C-4.38574788 16.99906847 -4.4118096 14.44498518 -4.4375 11.890625 C-4.45425781 11.00117188 -4.47101563 10.11171875 -4.48828125 9.1953125 C-4.49472656 8.34453125 -4.50117187 7.49375 -4.5078125 6.6171875 C-4.51828613 5.83166504 -4.52875977 5.04614258 -4.53955078 4.23681641 C-4.1843053 1.15267449 -3.00390197 0.34504279 0 0 Z " fill="#D3E38B" transform="translate(97.3125,13.734375)"/>
<path d="M0 0 C1.46248421 -0.02409439 1.46248421 -0.02409439 2.95451355 -0.04867554 C7.41823539 -0.09328266 11.88181024 -0.13420237 16.34570312 -0.15722656 C18.6957389 -0.17376583 21.04572479 -0.20102871 23.39550781 -0.23925781 C26.79168684 -0.29420057 30.1866875 -0.31592949 33.58325195 -0.33056641 C35.14773323 -0.36457047 35.14773323 -0.36457047 36.74382019 -0.39926147 C44.70634123 -0.37635613 49.46255671 1.72105234 55.25512695 7.10693359 C55.71016602 7.67154297 56.16520508 8.23615234 56.6340332 8.81787109 C57.10711914 9.38763672 57.58020508 9.95740234 58.06762695 10.54443359 C60.65035247 14.31574905 60.29952722 17.96652359 60.2590332 22.38037109 C60.25000977 23.65267578 60.24098633 24.92498047 60.23168945 26.23583984 C60.22008789 27.21166016 60.20848633 28.18748047 60.1965332 29.19287109 C55.34924146 28.60219531 51.69302459 26.4800617 47.5090332 24.13037109 C43.09957457 21.33300569 43.09957457 21.33300569 38.1965332 20.19287109 C37.6705957 21.58505859 37.6705957 21.58505859 37.1340332 23.00537109 C32.35069264 33.98280704 23.59025896 46.71844609 13.1965332 53.19287109 C9.34209123 53.41104705 7.13069839 53.00890255 4.1887207 50.43896484 C-0.8034668 44.95160085 -0.8034668 44.95160085 -0.8034668 41.19287109 C-1.4634668 41.19287109 -2.1234668 41.19287109 -2.8034668 41.19287109 C-3.06385742 41.76908203 -3.32424805 42.34529297 -3.5925293 42.93896484 C-4.89066488 45.35517204 -6.3653911 47.20081588 -8.1784668 49.25537109 C-8.76370117 49.92697266 -9.34893555 50.59857422 -9.9519043 51.29052734 C-11.80440217 53.19383212 -13.56525733 54.76166544 -15.8034668 56.19287109 C-16.7934668 56.19287109 -17.7834668 56.19287109 -18.8034668 56.19287109 C-18.90269335 50.33964935 -18.97510443 44.48692232 -19.02319336 38.63305664 C-19.04325017 36.64371201 -19.07050265 34.65442591 -19.10522461 32.6652832 C-19.1540045 29.79802978 -19.17649506 26.93155898 -19.1940918 24.06396484 C-19.21473694 23.18139511 -19.23538208 22.29882538 -19.25665283 21.38951111 C-19.25877998 15.47294687 -18.1564423 12.08601095 -14.8034668 7.19287109 C-14.1434668 7.19287109 -13.4834668 7.19287109 -12.8034668 7.19287109 C-12.8034668 6.53287109 -12.8034668 5.87287109 -12.8034668 5.19287109 C-8.59071893 1.43555543 -5.59127363 0.08386007 0 0 Z " fill="#FDFBF9" transform="translate(37.803466796875,58.80712890625)"/>
<path d="M0 0 C0.11710979 3.99974981 0.18755489 7.99905281 0.25 12 C0.28351563 13.12535156 0.31703125 14.25070313 0.3515625 15.41015625 C0.45091328 23.90464816 -0.44640501 28.73736202 -5.86352539 35.23535156 C-14.39092007 43.19904574 -24.89461735 42.07708845 -35.89819336 41.82324219 C-39.19054533 41.74993219 -42.47839856 41.74120661 -45.77148438 41.7421875 C-47.88285108 41.72253003 -49.99418759 41.69921808 -52.10546875 41.671875 C-53.07961227 41.66742371 -54.0537558 41.66297241 -55.05741882 41.65838623 C-61.75356612 41.47362671 -67.43905691 40.29250754 -72.48796082 35.62420654 C-78.27420871 29.0749245 -79.43448047 23.53500174 -79.1875 15.125 C-79.17396484 14.24585938 -79.16042969 13.36671875 -79.14648438 12.4609375 C-79.11136623 10.30702448 -79.05756694 8.15342996 -79 6 C-77.83243164 6.01571045 -76.66486328 6.0314209 -75.46191406 6.04760742 C-71.02611514 6.10293551 -66.59034481 6.13671393 -62.15429688 6.16479492 C-60.25385367 6.17965212 -58.35344325 6.19994348 -56.453125 6.22631836 C-39.85979944 6.45043372 -22.98169015 6.00139393 -7.41015625 -0.328125 C-4.56455409 -1.12138849 -2.84130988 -0.65548248 0 0 Z " fill="#FDFDFA" transform="translate(98,121)"/>
<path d="M0 0 C4.77091459 1.78125295 9.25812887 4.06568081 13.80078125 6.3515625 C15.0553437 6.97990494 15.0553437 6.97990494 16.33525085 7.62094116 C18.99528201 8.95374604 21.65390548 10.28933211 24.3125 11.625 C26.12035042 12.53143409 27.92829212 13.43768615 29.73632812 14.34375 C34.1586124 16.56039246 38.57963664 18.77952957 43 21 C41.49417899 28.01190818 35.50011708 32.30089131 29.78125 36.1875 C4.9500746 51.39308745 -23.13594601 51.42915784 -51.3125 49.1875 C-52.22427002 49.11764893 -53.13604004 49.04779785 -54.07543945 48.97583008 C-60.61998613 48.37279813 -66.71537538 46.90193581 -73 45 C-70.49501553 42.49501553 -68.27751466 41.92193497 -64.9375 40.75 C-55.21757493 37.07421797 -45.83925407 31.67850814 -41 22 C-40.34 22 -39.68 22 -39 22 C-38.443125 23.0725 -37.88625 24.145 -37.3125 25.25 C-35.34826253 28.65975026 -33.41493428 30.917723 -30 33 C-26.73554402 33.46480665 -25.38371058 33.25351189 -22.60546875 31.41796875 C-16.50959906 25.79479978 -11.58162888 19.90815758 -7 13 C-6.49339844 12.24074219 -5.98679687 11.48148438 -5.46484375 10.69921875 C-3.23313091 7.24429305 -1.34486243 3.91232706 0 0 Z " fill="#E82128" transform="translate(76,78)"/>
<path d="M0 0 C3.3 0 6.6 0 10 0 C11.20272819 2.40545638 11.10071472 3.94996953 11.0625 6.625 C11.05347656 7.44226563 11.04445313 8.25953125 11.03515625 9.1015625 C11.02355469 9.72804687 11.01195313 10.35453125 11 11 C11.66 11 12.32 11 13 11 C13 30.8 13 50.6 13 71 C12.34 71 11.68 71 11 71 C11 67.04 11 63.08 11 59 C7.04 59 3.08 59 -1 59 C-1 55.04 -1 51.08 -1 47 C4.445 46.505 4.445 46.505 10 46 C10.33 42.37 10.66 38.74 11 35 C7.37 35 3.74 35 0 35 C0 23.45 0 11.9 0 0 Z " fill="#F6F6F5" transform="translate(108,157)"/>
<path d="M0 0 C0.66 0 1.32 0 2 0 C2.556875 1.0725 3.11375 2.145 3.6875 3.25 C5.99303804 7.30315228 8.80466319 9.9023316 13 12 C13 12.66 13 13.32 13 14 C10.98828125 15.4375 10.98828125 15.4375 8.3125 17 C7.44238281 17.515625 6.57226562 18.03125 5.67578125 18.5625 C1.51168692 20.7995609 -1.21468466 22 -6 22 C-6 22.66 -6 23.32 -6 24 C-15.08976826 27.7291357 -22.91954332 25.85143313 -32 23 C-29.49501553 20.49501553 -27.27751466 19.92193497 -23.9375 18.75 C-14.21757493 15.07421797 -4.83925407 9.67850814 0 0 Z " fill="#85261E" transform="translate(35,100)"/>
<path d="M0 0 C3.63 0 7.26 0 11 0 C12.01622308 5.18273772 12.04723881 6.88190297 10 12 C6.37 12 2.74 12 -1 12 C-1 14.64 -1 17.28 -1 20 C5.93 20 12.86 20 20 20 C20 14.72 20 9.44 20 4 C20.33 4 20.66 4 21 4 C21 9.61 21 15.22 21 21 C17.75978027 21.029729 17.75978027 21.029729 14.45410156 21.06005859 C7.31741133 21.12696189 0.180867 21.20460147 -6.95565414 21.28752708 C-11.28257795 21.33747549 -15.60947752 21.38380565 -19.93652344 21.421875 C-24.11227032 21.45874622 -28.28781369 21.50511114 -32.46338654 21.55806351 C-34.05654582 21.5765977 -35.64974872 21.59170928 -37.24297333 21.60334396 C-39.47436875 21.62022325 -41.70529907 21.64926172 -43.93652344 21.68115234 C-45.20671326 21.69447601 -46.47690308 21.70779968 -47.7855835 21.7215271 C-50.83080633 21.98534233 -52.40091987 22.521355 -55 24 C-57.1875 23.75 -57.1875 23.75 -59 23 C-60.62651522 19.74696956 -60.11453156 16.60774398 -60 13 C-59 12 -59 12 -56.71484375 11.90234375 C-55.34005859 11.91974609 -55.34005859 11.91974609 -53.9375 11.9375 C-53.01839844 11.94652344 -52.09929688 11.95554687 -51.15234375 11.96484375 C-50.44207031 11.97644531 -49.73179688 11.98804688 -49 12 C-49 14.64 -49 17.28 -49 20 C-36.79 20 -24.58 20 -12 20 C-12 17.36 -12 14.72 -12 12 C-11.37351563 11.95101563 -10.74703125 11.90203125 -10.1015625 11.8515625 C-8.87566406 11.73941406 -8.87566406 11.73941406 -7.625 11.625 C-6.81289062 11.55539063 -6.00078125 11.48578125 -5.1640625 11.4140625 C-2.79665809 11.17107412 -2.79665809 11.17107412 -1 9 C-0.53993654 6.79749008 -0.53993654 6.79749008 -0.375 4.375 C-0.25125 2.93125 -0.1275 1.4875 0 0 Z " fill="#EEEEED" transform="translate(72,14)"/>
<path d="M0 0 C1.94043742 1.94043742 1.16382173 5.59873735 1.16796875 8.24609375 C1.17129715 8.97240494 1.17462555 9.69871613 1.17805481 10.44703674 C1.18312675 11.98625046 1.18546305 13.5254752 1.18530273 15.06469727 C1.18748766 17.42417471 1.20563565 19.78318361 1.22460938 22.14257812 C1.22754352 23.63541506 1.22952817 25.12825423 1.23046875 26.62109375 C1.23765427 27.32946884 1.24483978 28.03784393 1.25224304 28.76768494 C1.22882337 33.77117663 1.22882337 33.77117663 -1 36 C-3.97 36 -6.94 36 -10 36 C-10 25.44 -10 14.88 -10 4 C-9.34 4 -8.68 4 -8 4 C-8 3.34 -8 2.68 -8 2 C-4.77786243 -0.14809171 -3.72224599 -0.29386153 0 0 Z " fill="#EEEEEC" transform="translate(118,109)"/>
<path d="M0 0 C0.33 0.66 0.66 1.32 1 2 C3.64 2 6.28 2 9 2 C9 13.55 9 25.1 9 37 C6.03 37 3.06 37 0 37 C0 24.79 0 12.58 0 0 Z " fill="#EEEEED" transform="translate(0,167)"/>
<path d="M0 0 C0.33 0 0.66 0 1 0 C1 5.61 1 11.22 1 17 C-2.24021973 17.029729 -2.24021973 17.029729 -5.54589844 17.06005859 C-12.68258867 17.12696189 -19.819133 17.20460147 -26.95565414 17.28752708 C-31.28257795 17.33747549 -35.60947752 17.38380565 -39.93652344 17.421875 C-44.11227032 17.45874622 -48.28781369 17.50511114 -52.46338654 17.55806351 C-54.05654582 17.5765977 -55.64974872 17.59170928 -57.24297333 17.60334396 C-59.47436875 17.62022325 -61.70529907 17.64926172 -63.93652344 17.68115234 C-65.20671326 17.69447601 -66.47690308 17.70779968 -67.7855835 17.7215271 C-70.83080633 17.98534233 -72.40091987 18.521355 -75 20 C-77.1875 19.75 -77.1875 19.75 -79 19 C-80.62651522 15.74696956 -80.11453156 12.60774398 -80 9 C-79 8 -79 8 -76.71484375 7.90234375 C-75.34005859 7.91974609 -75.34005859 7.91974609 -73.9375 7.9375 C-73.01839844 7.94652344 -72.09929687 7.95554687 -71.15234375 7.96484375 C-70.44207031 7.97644531 -69.73179688 7.98804688 -69 8 C-69 10.64 -69 13.28 -69 16 C-46.23 16 -23.46 16 0 16 C0 10.72 0 5.44 0 0 Z " fill="#E8EBD4" transform="translate(92,18)"/>
<path d="M0 0 C0.33 0 0.66 0 1 0 C1.02694851 1.95825873 1.04637218 3.91662226 1.0625 5.875 C1.07410156 6.96554688 1.08570312 8.05609375 1.09765625 9.1796875 C1 12 1 12 0 14 C-0.22622081 15.70363822 -0.40888473 17.41328701 -0.5625 19.125 C-0.706875 20.73375 -0.85125 22.3425 -1 24 C-4.96 24.33 -8.92 24.66 -13 25 C-13 21.04 -13 17.08 -13 13 C-10.59454362 11.79727181 -9.05003047 11.89928528 -6.375 11.9375 C-5.14910156 11.95103516 -5.14910156 11.95103516 -3.8984375 11.96484375 C-2.95871094 11.98224609 -2.95871094 11.98224609 -2 12 C-1.93941406 11.21753906 -1.87882812 10.43507813 -1.81640625 9.62890625 C-1.73261719 8.61699219 -1.64882812 7.60507812 -1.5625 6.5625 C-1.48128906 5.55316406 -1.40007812 4.54382813 -1.31640625 3.50390625 C-1 1 -1 1 0 0 Z " fill="#FCFDFB" transform="translate(120,25)"/>
<path d="M0 0 C6.27 0.66 12.54 1.32 19 2 C19 2.33 19 2.66 19 3 C16.36 3 13.72 3 11 3 C11.33 9.93 11.66 16.86 12 24 C11.34 23.67 10.68 23.34 10 23 C10 16.4 10 9.8 10 3 C7.69 3 5.38 3 3 3 C3 39.96 3 76.92 3 115 C2.67 115 2.34 115 2 115 C1.99576806 114.42554736 1.99153612 113.85109472 1.98717594 113.25923443 C1.88391821 99.28826867 1.77522568 85.31735433 1.66066074 71.34647655 C1.6053581 64.59029557 1.55188096 57.8341093 1.50268555 51.07788086 C1.45523186 44.56155368 1.40271186 38.04527889 1.34705925 31.52901649 C1.32663008 29.03906901 1.30791794 26.54910684 1.29092598 24.05913353 C1.26689454 20.57997692 1.23683805 17.10092188 1.20532227 13.62182617 C1.1995668 12.58532928 1.19381134 11.5488324 1.18788147 10.48092651 C1.17809265 9.53441727 1.16830383 8.58790802 1.15821838 7.61271667 C1.15176583 6.78955554 1.14531328 5.96639441 1.1386652 5.11828899 C1.07745532 2.80972708 1.07745532 2.80972708 0 0 Z " fill="#DDE0AD" transform="translate(8,124)"/>
<path d="M0 0 C0.66 0 1.32 0 2 0 C2.02687279 1.81242052 2.04633715 3.62495233 2.0625 5.4375 C2.07410156 6.44683594 2.08570312 7.45617187 2.09765625 8.49609375 C2 11 2 11 1 12 C0.71681146 14.84087552 0.55149787 17.68165215 0.37890625 20.53125 C0.25386719 21.3459375 0.12882812 22.160625 0 23 C-2.52475462 24.26237731 -4.31200466 24.09856404 -7.125 24.0625 C-8.73375 24.041875 -10.3425 24.02125 -12 24 C-12 20.04 -12 16.08 -12 12 C-6.555 11.505 -6.555 11.505 -1 11 C-0.67 7.37 -0.34 3.74 0 0 Z " fill="#EEEEEC" transform="translate(119,14)"/>
<path d="M0 0 C1.54168602 -0.00945648 1.54168602 -0.00945648 3.11451721 -0.019104 C4.21359909 -0.01505554 5.31268097 -0.01100708 6.44506836 -0.00683594 C8.15151772 -0.00970612 8.15151772 -0.00970612 9.8924408 -0.01263428 C12.29385601 -0.01399352 14.69527864 -0.01031533 17.09667969 -0.00195312 C20.77482567 0.00875969 24.45248433 -0.00186264 28.13061523 -0.01464844 C30.46460069 -0.01332699 32.79858584 -0.01076491 35.13256836 -0.00683594 C36.23367447 -0.0108844 37.33478058 -0.01493286 38.46925354 -0.019104 C40.00621132 -0.00964752 40.00621132 -0.00964752 41.57421875 0 C42.47402969 0.00159119 43.37384064 0.00318237 44.30091858 0.00482178 C46.90639289 0.27808505 48.52056098 0.85624072 50.72241211 2.25878906 C51.21741211 3.24878906 51.21741211 3.24878906 51.72241211 4.25878906 C52.71241211 4.58878906 53.70241211 4.91878906 54.72241211 5.25878906 C55.90991211 8.82128906 55.90991211 8.82128906 56.72241211 12.25878906 C56.04178711 11.51628906 55.36116211 10.77378906 54.65991211 10.00878906 C47.9638665 3.45651025 42.36697309 2.66468406 33.27709961 2.76269531 C31.64504074 2.76051247 31.64504074 2.76051247 29.98001099 2.75828552 C27.68887646 2.75993994 25.39773028 2.7714497 23.10668945 2.79223633 C19.60181526 2.82125261 16.0984492 2.81282235 12.59350586 2.79980469 C10.36302977 2.80604077 8.13255844 2.81443069 5.90209961 2.82519531 C4.85617645 2.82225967 3.8102533 2.81932404 2.7326355 2.81629944 C-2.46938081 2.88376244 -6.01112025 2.9649252 -10.27758789 6.25878906 C-11.26758789 6.58878906 -12.25758789 6.91878906 -13.27758789 7.25878906 C-13.60758789 7.91878906 -13.93758789 8.57878906 -14.27758789 9.25878906 C-13.94758789 7.60878906 -13.61758789 5.95878906 -13.27758789 4.25878906 C-12.28758789 4.25878906 -11.29758789 4.25878906 -10.27758789 4.25878906 C-10.27758789 3.59878906 -10.27758789 2.93878906 -10.27758789 2.25878906 C-6.70398351 0.63871554 -3.91546495 0.00691782 0 0 Z " fill="#D6E2A2" transform="translate(38.277587890625,56.7412109375)"/>
<path d="M0 0 C3.3 0 6.6 0 10 0 C11.20272819 2.40545638 11.10071472 3.94996953 11.0625 6.625 C11.05347656 7.44226563 11.04445313 8.25953125 11.03515625 9.1015625 C11.02355469 9.72804687 11.01195313 10.35453125 11 11 C11.66 11 12.32 11 13 11 C13 14.96 13 18.92 13 23 C12.34 23 11.68 23 11 23 C11 19.37 11 15.74 11 12 C7.37 12 3.74 12 0 12 C0 8.04 0 4.08 0 0 Z " fill="#FDFDFC" transform="translate(108,157)"/>
<path d="M0 0 C1.37478516 0.01740234 1.37478516 0.01740234 2.77734375 0.03515625 C3.69644531 0.04417969 4.61554688 0.05320312 5.5625 0.0625 C6.27277344 0.07410156 6.98304687 0.08570312 7.71484375 0.09765625 C7.90886008 1.9094703 8.0948875 3.72214157 8.27734375 5.53515625 C8.38175781 6.54449219 8.48617187 7.55382812 8.59375 8.59375 C8.65369141 9.83318359 8.65369141 9.83318359 8.71484375 11.09765625 C7.71484375 12.09765625 7.71484375 12.09765625 5.4296875 12.1953125 C4.05490234 12.17791016 4.05490234 12.17791016 2.65234375 12.16015625 C1.73324219 12.15113281 0.81414062 12.14210938 -0.1328125 12.1328125 C-0.84308594 12.12121094 -1.55335937 12.10960938 -2.28515625 12.09765625 C-1.95515625 15.06765625 -1.62515625 18.03765625 -1.28515625 21.09765625 C-1.94515625 21.09765625 -2.60515625 21.09765625 -3.28515625 21.09765625 C-3.31403771 17.78517438 -3.33191424 14.47272458 -3.34765625 11.16015625 C-3.35603516 10.21462891 -3.36441406 9.26910156 -3.37304688 8.29492188 C-3.37626953 7.39580078 -3.37949219 6.49667969 -3.3828125 5.5703125 C-3.38804932 4.73765869 -3.39328613 3.90500488 -3.39868164 3.04711914 C-3.23218165 0.18797407 -2.86349048 0.12237139 0 0 Z " fill="#EFEEEA" transform="translate(110.28515625,72.90234375)"/>
<path d="M0 0 C3.96 0 7.92 0 12 0 C12 3.96 12 7.92 12 12 C8.04 12 4.08 12 0 12 C0 8.04 0 4.08 0 0 Z " fill="#EEEFEC" transform="translate(107,216)"/>
<path d="M0 0 C1.60875 0.020625 3.2175 0.04125 4.875 0.0625 C4.875 4.0225 4.875 7.9825 4.875 12.0625 C-1.065 12.5575 -1.065 12.5575 -7.125 13.0625 C-7.125 9.1025 -7.125 5.1425 -7.125 1.0625 C-4.60024538 -0.19987731 -2.81299534 -0.03606404 0 0 Z " fill="#FDFDFA" transform="translate(114.125,60.9375)"/>
<path d="M0 0 C3.3 0 6.6 0 10 0 C12.11257974 4.22515948 12.26149964 6.38017308 12 11 C11 12 11 12 8.49609375 12.09765625 C5.6640625 12.06510417 2.83203125 12.03255208 0 12 C0 8.04 0 4.08 0 0 Z " fill="#FDFCFC" transform="translate(0,240)"/>
<path d="M0 0 C3.96 0 7.92 0 12 0 C11.67 3.96 11.34 7.92 11 12 C7.37 12 3.74 12 0 12 C0 8.04 0 4.08 0 0 Z " fill="#FDFEFC" transform="translate(107,228)"/>
<path d="M0 0 C3.96 0 7.92 0 12 0 C12 3.63 12 7.26 12 11 C6.06 11.495 6.06 11.495 0 12 C0 8.04 0 4.08 0 0 Z " fill="#FDFDFD" transform="translate(0,26)"/>
<path d="M0 0 C3.63 0 7.26 0 11 0 C11.09765625 8.49609375 11.09765625 8.49609375 11 11 C10 12 10 12 7.71484375 12.09765625 C5.14322917 12.06510417 2.57161458 12.03255208 0 12 C0 8.04 0 4.08 0 0 Z " fill="#FCFDFC" transform="translate(108,14)"/>
<path d="M0 0 C3.63 0 7.26 0 11 0 C11.1953125 7.6171875 11.1953125 7.6171875 11 10 C9 12 9 12 6.8359375 12.1953125 C4.55729167 12.13020833 2.27864583 12.06510417 0 12 C0 8.04 0 4.08 0 0 Z " fill="#FDFDFC" transform="translate(108,133)"/>
<path d="M0 0 C6.93359375 -0.09765625 6.93359375 -0.09765625 9 0 C11.36670329 2.36670329 10.7614562 9.03524138 11 12 C7.37 12 3.74 12 0 12 C0 8.04 0 4.08 0 0 Z " fill="#FDFDFC" transform="translate(108,180)"/>
<path d="M0 0 C2.97 0 5.94 0 9 0 C9 4.29 9 8.58 9 13 C4.545 13.495 4.545 13.495 0 14 C0 9.38 0 4.76 0 0 Z " fill="#FBFCFA" transform="translate(0,144)"/>
<path d="M0 0 C1 1 1 1 1.1328125 3.25 C1.13023438 4.1575 1.12765625 5.065 1.125 6 C1.12757812 6.9075 1.13015625 7.815 1.1328125 8.75 C1 11 1 11 0 12 C-1.68608966 12.07205511 -3.37500659 12.08386068 -5.0625 12.0625 C-5.98160156 12.05347656 -6.90070313 12.04445313 -7.84765625 12.03515625 C-8.55792969 12.02355469 -9.26820312 12.01195313 -10 12 C-10 9.36 -10 6.72 -10 4 C-9.34 4 -8.68 4 -8 4 C-8 3.34 -8 2.68 -8 2 C-4.77786243 -0.14809171 -3.72224599 -0.29386153 0 0 Z " fill="#FCFBF9" transform="translate(118,109)"/>
<path d="M0 0 C2.97 0 5.94 0 9 0 C9 3.96 9 7.92 9 12 C4.545 12.495 4.545 12.495 0 13 C0 8.71 0 4.42 0 0 Z " fill="#FDFDFC" transform="translate(0,49)"/>
<path d="M0 0 C2.97 0 5.94 0 9 0 C9 3.96 9 7.92 9 12 C6.03 12 3.06 12 0 12 C0 8.04 0 4.08 0 0 Z " fill="#FDFDFB" transform="translate(0,216)"/>
<path d="M0 0 C2.97 0 5.94 0 9 0 C9 3.96 9 7.92 9 12 C6.03 12 3.06 12 0 12 C0 8.04 0 4.08 0 0 Z " fill="#FEFEFC" transform="translate(0,192)"/>
<path d="M0 0 C2.97 0.33 5.94 0.66 9 1 C9 4.96 9 8.92 9 13 C2.84765625 13.09765625 2.84765625 13.09765625 1 13 C0 12 0 12 -0.09765625 9.27734375 C-0.08605469 8.17519531 -0.07445312 7.07304688 -0.0625 5.9375 C-0.05347656 4.83277344 -0.04445312 3.72804688 -0.03515625 2.58984375 C-0.02355469 1.73519531 -0.01195312 0.88054687 0 0 Z " fill="#FDFDFC" transform="translate(0,96)"/>
<path d="M0 0 C2.97 0 5.94 0 9 0 C9 3.96 9 7.92 9 12 C6.03 12 3.06 12 0 12 C0 8.04 0 4.08 0 0 Z " fill="#FDFDFD" transform="translate(0,73)"/>
<path d="M0 0 C3.63 0 7.26 0 11 0 C11 3.63 11 7.26 11 11 C10.01 11 9.02 11 8 11 C8 10.34 8 9.68 8 9 C7.01 9.33 6.02 9.66 5 10 C2.875 9.6875 2.875 9.6875 1 9 C-0.4783226 6.04335481 -0.06032783 3.25770263 0 0 Z " fill="#FDFBFC" transform="translate(108,85)"/>
<path d="M0 0 C2.64 0 5.28 0 8 0 C8 3.96 8 7.92 8 12 C3.545 12.495 3.545 12.495 -1 13 C-2.40742022 10.18515955 -1.66652164 8.43063887 -1.0625 5.375 C-0.86785156 4.37210938 -0.67320313 3.36921875 -0.47265625 2.3359375 C-0.31667969 1.56507812 -0.16070312 0.79421875 0 0 Z " fill="#FCFDFB" transform="translate(84,14)"/>
<path d="M0 0 C3.5625 0.1875 3.5625 0.1875 6.5625 1.1875 C6.5625 3.8275 6.5625 6.4675 6.5625 9.1875 C2.6025 9.1875 -1.3575 9.1875 -5.4375 9.1875 C-5.5625 5.8125 -5.5625 5.8125 -5.4375 2.1875 C-3.4375 0.1875 -3.4375 0.1875 0 0 Z " fill="#FDFDFB" transform="translate(28.4375,24.8125)"/>
<path d="M0 0 C0.33 0.66 0.66 1.32 1 2 C3.64 2 6.28 2 9 2 C9 5.63 9 9.26 9 13 C6.03 13 3.06 13 0 13 C0 8.71 0 4.42 0 0 Z " fill="#FDFDFB" transform="translate(0,167)"/>
<path d="M0 0 C-1.23551244 3.70653731 -2.96665078 4.64915435 -6 7 C-6.33 7.66 -6.66 8.32 -7 9 C-4.69 9.33 -2.38 9.66 0 10 C0 10.33 0 10.66 0 11 C-2.91691525 11.05401695 -5.83282724 11.09368066 -8.75 11.125 C-9.575 11.14175781 -10.4 11.15851563 -11.25 11.17578125 C-12.04921875 11.18222656 -12.8484375 11.18867187 -13.671875 11.1953125 C-14.4050293 11.20578613 -15.13818359 11.21625977 -15.89355469 11.22705078 C-18.29896076 10.96777544 -19.91251494 10.19225925 -22 9 C-20.02 8.67 -18.04 8.34 -16 8 C-16 7.34 -16 6.68 -16 6 C-15.32453125 5.73445313 -14.6490625 5.46890625 -13.953125 5.1953125 C-13.06109375 4.84210938 -12.1690625 4.48890625 -11.25 4.125 C-10.36828125 3.77695313 -9.4865625 3.42890625 -8.578125 3.0703125 C-6.0324254 2.05443666 -6.0324254 2.05443666 -3.796875 0.8671875 C-2 0 -2 0 0 0 Z " fill="#D32930" transform="translate(45,116)"/>
<path d="M0 0 C1.134375 0.020625 2.26875 0.04125 3.4375 0.0625 C3.7675 4.0225 4.0975 7.9825 4.4375 12.0625 C1.7975 12.0625 -0.8425 12.0625 -3.5625 12.0625 C-4.7523306 9.6828388 -4.69599966 8.14764265 -4.6875 5.5 C-4.69136719 4.29150391 -4.69136719 4.29150391 -4.6953125 3.05859375 C-4.45983874 -0.48043829 -3.68557748 0.06465925 0 0 Z " fill="#EFEFEE" transform="translate(4.5625,156.9375)"/>
<path d="M0 0 C0.11710979 3.99974981 0.18755489 7.99905281 0.25 12 C0.30027344 13.68802734 0.30027344 13.68802734 0.3515625 15.41015625 C0.43405659 22.4634008 -0.2536327 26.98221316 -4 33 C-5.43088528 30.13822943 -4.59991697 28.06624227 -4 25 C-3.34 25 -2.68 25 -2 25 C-2.33 17.08 -2.66 9.16 -3 1 C-4.98 1.33 -6.96 1.66 -9 2 C-9.33 2.66 -9.66 3.32 -10 4 C-12.31 4 -14.62 4 -17 4 C-14.42532013 2.60538174 -11.76778228 1.42734223 -9.0625 0.3125 C-8.41410156 0.04050781 -7.76570313 -0.23148437 -7.09765625 -0.51171875 C-4.47551769 -1.1220862 -2.60161415 -0.58263502 0 0 Z " fill="#F6EEDA" transform="translate(98,121)"/>
<path d="M0 0 C7.875 0.875 7.875 0.875 9 2 C9.14115161 4.67058851 9.04247107 7.32432238 9 10 C6.03 10 3.06 10 0 10 C0 6.7 0 3.4 0 0 Z " fill="#FDFBF6" transform="translate(0,123)"/>
<path d="M0 0 C2.05078125 0.03255208 4.1015625 0.06510417 6.15234375 0.09765625 C6.15234375 2.73765625 6.15234375 5.37765625 6.15234375 8.09765625 C3.18234375 8.09765625 0.21234375 8.09765625 -2.84765625 8.09765625 C-2.89007348 5.7647085 -2.88858562 3.43063058 -2.84765625 1.09765625 C-1.84765625 0.09765625 -1.84765625 0.09765625 0 0 Z " fill="#EDEEEC" transform="translate(85.84765625,25.90234375)"/>
<path d="M0 0 C1.32 0.33 2.64 0.66 4 1 C2.37660195 2.70884005 0.70680947 4.37446717 -1 6 C-1.66 6 -2.32 6 -3 6 C-3 20.19 -3 34.38 -3 49 C-3.33 49 -3.66 49 -4 49 C-4.09898364 42.82532414 -4.1715236 36.65111157 -4.21972656 30.47583008 C-4.23982397 28.37581333 -4.26710666 26.27585242 -4.30175781 24.17602539 C-4.3503577 21.15497042 -4.37298762 18.13465623 -4.390625 15.11328125 C-4.41127014 14.17664139 -4.43191528 13.24000153 -4.45318604 12.27497864 C-4.4546943 7.87915615 -4.41600986 5.64363127 -1.97558594 1.86791992 C-1.32364258 1.25150635 -0.67169922 0.63509277 0 0 Z " fill="#F2F5E0" transform="translate(13,37)"/>
<path d="M0 0 C0 3 0 3 -1 5 C0.65 5 2.3 5 4 5 C4.33 3.35 4.66 1.7 5 0 C5.33 0 5.66 0 6 0 C6.125 6.75 6.125 6.75 5 9 C1.04 9 -2.92 9 -7 9 C-7.33 7.68 -7.66 6.36 -8 5 C-7.05125 4.54625 -6.1025 4.0925 -5.125 3.625 C-1.99686321 2.19761746 -1.99686321 2.19761746 0 0 Z " fill="#EEEDF3" transform="translate(102,246)"/>
<path d="M0 0 C0.33 0.66 0.66 1.32 1 2 C-0.72579212 6.17823356 -2.72780849 8.93232046 -6 12 C-6.515625 12.721875 -7.03125 13.44375 -7.5625 14.1875 C-9 16 -9 16 -12 17 C-12.66 17.99 -13.32 18.98 -14 20 C-15.32 19.34 -16.64 18.68 -18 18 C-17.5153125 17.67128906 -17.030625 17.34257813 -16.53125 17.00390625 C-9.92473835 12.31582394 -4.49933385 6.74900077 0 0 Z " fill="#D9393D" transform="translate(67,94)"/>
<path d="M0 0 C-1 3 -1 3 -2.53125 4.0625 C-16.63212435 10.77720207 -16.63212435 10.77720207 -22 9 C-20.02 8.67 -18.04 8.34 -16 8 C-16 7.34 -16 6.68 -16 6 C-15.32453125 5.73445313 -14.6490625 5.46890625 -13.953125 5.1953125 C-13.06109375 4.84210938 -12.1690625 4.48890625 -11.25 4.125 C-10.36828125 3.77695313 -9.4865625 3.42890625 -8.578125 3.0703125 C-6.0324254 2.05443666 -6.0324254 2.05443666 -3.796875 0.8671875 C-2 0 -2 0 0 0 Z " fill="#C52C2E" transform="translate(45,116)"/>
<path d="M0 0 C1.41623216 -0.05447047 2.83308191 -0.09300508 4.25 -0.125 C5.03890625 -0.14820313 5.8278125 -0.17140625 6.640625 -0.1953125 C9.24614317 0.02037609 10.79986977 0.6078822 13 2 C13.33 2.66 13.66 3.32 14 4 C14.99 4.33 15.98 4.66 17 5 C18.1875 8.5625 18.1875 8.5625 19 12 C18.360625 11.278125 17.72125 10.55625 17.0625 9.8125 C12.35902229 5.10902229 6.54646068 2.06034222 0 1 C0 0.67 0 0.34 0 0 Z " fill="#D2E197" transform="translate(76,57)"/>
<path d="M0 0 C0.33 0 0.66 0 1 0 C1.02688151 1.64574566 1.04634123 3.29161413 1.0625 4.9375 C1.07410156 5.85402344 1.08570312 6.77054688 1.09765625 7.71484375 C1 10 1 10 0 11 C-1.98 11 -3.96 11 -6 11 C-4.02 7.37 -2.04 3.74 0 0 Z " fill="#FBFCF2" transform="translate(106,241)"/>
<path d="M0 0 C0 2.31 0 4.62 0 7 C-2.48806276 8.24403138 -4.23976186 8.06732288 -7 8 C-7.99 8 -8.98 8 -10 8 C-8.71451591 6.66070495 -7.42141845 5.32871357 -6.125 4 C-5.04605469 2.88625 -5.04605469 2.88625 -3.9453125 1.75 C-2 0 -2 0 0 0 Z " fill="#F7DCDD" transform="translate(120,102)"/>
<path d="M0 0 C-1 3 -1 3 -3.1875 4.6875 C-6.36774916 6.17161628 -8.53214273 6.24194353 -12 6 C-12 5.34 -12 4.68 -12 4 C-10.56988027 3.13353333 -9.13059381 2.28218171 -7.6875 1.4375 C-6.48673828 0.72400391 -6.48673828 0.72400391 -5.26171875 -0.00390625 C-3 -1 -3 -1 0 0 Z " fill="#7D3223" transform="translate(26,114)"/>
<path d="M0 0 C0.66 0.33 1.32 0.66 2 1 C3.18681726 4.56045177 3.09689832 7.43808337 3.0625 11.1875 C3.05347656 12.45980469 3.04445313 13.73210937 3.03515625 15.04296875 C3.02355469 16.01878906 3.01195313 16.99460937 3 18 C1.35 17.67 -0.3 17.34 -2 17 C-1.01 16.67 -0.02 16.34 1 16 C0.67 10.72 0.34 5.44 0 0 Z " fill="#F3F0D6" transform="translate(95,70)"/>
<path d="M0 0 C0.33 0 0.66 0 1 0 C1 7.92 1 15.84 1 24 C0.01 24 -0.98 24 -2 24 C-1.34 16.08 -0.68 8.16 0 0 Z " fill="#F0F2DD" transform="translate(9,96)"/>
<path d="M0 0 C3.63 0 7.26 0 11 0 C11.33 0.99 11.66 1.98 12 3 C8.04 3 4.08 3 0 3 C0 2.01 0 1.02 0 0 Z " fill="#FCFCFA" transform="translate(12,252)"/>
<path d="M0 0 C0 0.66 0 1.32 0 2 C-1.6396875 2.2165625 -1.6396875 2.2165625 -3.3125 2.4375 C-6.93122987 2.88288104 -6.93122987 2.88288104 -10 4 C-12.26171875 3.87890625 -12.26171875 3.87890625 -14.6875 3.5625 C-15.89986328 3.40974609 -15.89986328 3.40974609 -17.13671875 3.25390625 C-17.75160156 3.17011719 -18.36648437 3.08632812 -19 3 C-19 2.67 -19 2.34 -19 2 C-16.58374679 1.66340751 -14.16707192 1.33061612 -11.75 1 C-10.72712891 0.85691406 -10.72712891 0.85691406 -9.68359375 0.7109375 C-6.40628012 0.2654774 -3.31615847 0 0 0 Z " fill="#FCD3D7" transform="translate(80,125)"/>
<path d="M0 0 C0.33 0.99 0.66 1.98 1 3 C-0.41488448 5.76239351 -1.80363095 7.80363095 -4 10 C-5.32 9.67 -6.64 9.34 -8 9 C-5.36 6.03 -2.72 3.06 0 0 Z " fill="#7D362F" transform="translate(33,103)"/>
<path d="M0 0 C0 2.67884659 -0.11409459 4.50335747 -1 7 C-1.99 7.66 -2.98 8.32 -4 9 C-4.99 8.67 -5.98 8.34 -7 8 C-7.33 7.01 -7.66 6.02 -8 5 C-7.05125 4.54625 -6.1025 4.0925 -5.125 3.625 C-1.99686321 2.19761746 -1.99686321 2.19761746 0 0 Z " fill="#EEF2DB" transform="translate(102,246)"/>
<path d="M0 0 C-0.33 0.66 -0.66 1.32 -1 2 C-4.96 2 -8.92 2 -13 2 C-13 1.34 -13 0.68 -13 0 C-11.39679026 -0.19551338 -9.79237014 -0.38111983 -8.1875 -0.5625 C-7.29417969 -0.66691406 -6.40085937 -0.77132812 -5.48046875 -0.87890625 C-3 -1 -3 -1 0 0 Z " fill="#FCFDF6" transform="translate(96,253)"/>
<path d="M0 0 C0 0.99 0 1.98 0 3 C1.32 3.33 2.64 3.66 4 4 C-0.00200378 5.60080151 -3.04556236 4.29279692 -7 3 C-4.74624683 0.74624683 -3.20799182 0 0 0 Z " fill="#83433A" transform="translate(10,120)"/>
<path d="M0 0 C2.64 0 5.28 0 8 0 C8.66 1.32 9.32 2.64 10 4 C9.13375 3.62875 8.2675 3.2575 7.375 2.875 C3.44302674 1.85559952 1.67062491 2.42687504 -2 4 C-1.34 2.68 -0.68 1.36 0 0 Z " fill="#D7E1A6" transform="translate(95,14)"/>
<path d="M0 0 C0.33 0.66 0.66 1.32 1 2 C-0.65909182 6.10406925 -2.21704034 8.65195608 -6 11 C-6.66 10.67 -7.32 10.34 -8 10 C-5.36 6.7 -2.72 3.4 0 0 Z " fill="#D9484B" transform="translate(67,94)"/>
<path d="M0 0 C1.98 0.66 3.96 1.32 6 2 C5.60196439 4.88575819 5.20990931 5.82189513 2.9375 7.75 C2.298125 8.1625 1.65875 8.575 1 9 C1.57584432 6.61435923 2.22227595 4.33317216 3 2 C2.01 2 1.02 2 0 2 C0 1.34 0 0.68 0 0 Z " fill="#D03A42" transform="translate(113,97)"/>
<path d="M0 0 C3.64991166 1.31802365 5.7895201 2.59214008 9 5 C5.7 5 2.4 5 -1 5 C-0.67 3.35 -0.34 1.7 0 0 Z " fill="#D14448" transform="translate(76,78)"/>
<path d="M0 0 C2.31 0 4.62 0 7 0 C7 0.66 7 1.32 7 2 C7.99 2.33 8.98 2.66 10 3 C10 3.66 10 4.32 10 5 C6.08788267 3.84414715 3.1254959 2.64465038 0 0 Z " fill="#FBDCDA" transform="translate(109,94)"/>
<path d="M0 0 C4.23429756 1.31061591 8.07407404 2.94356259 12 5 C12 5.33 12 5.66 12 6 C6.92387682 6.61528766 4.17017994 4.61658349 0 2 C0 1.34 0 0.68 0 0 Z " fill="#D23A2A" transform="translate(97,89)"/>
<path d="M0 0 C0.33 0 0.66 0 1 0 C1 1.65 1 3.3 1 5 C0.01 5.33 -0.98 5.66 -2 6 C-2.33 6.99 -2.66 7.98 -3 9 C-3.66 8.67 -4.32 8.34 -5 8 C-4.19185349 6.66402348 -3.37836819 5.331275 -2.5625 4 C-2.11003906 3.2575 -1.65757813 2.515 -1.19140625 1.75 C-0.79824219 1.1725 -0.40507813 0.595 0 0 Z " fill="#D74145" transform="translate(73,85)"/>
<path d="M0 0 C2.64 0.66 5.28 1.32 8 2 C8.66 4.31 9.32 6.62 10 9 C9.278125 8.236875 8.55625 7.47375 7.8125 6.6875 C5.30051382 4.28715765 2.99124519 2.70928296 0 1 C0 0.67 0 0.34 0 0 Z " fill="#DAE6AA" transform="translate(85,60)"/>
<path d="M0 0 C0.66 0.33 1.32 0.66 2 1 C1.21625 1.763125 0.4325 2.52625 -0.375 3.3125 C-3.07257717 5.90891805 -3.07257717 5.90891805 -5 9 C-5.66 8.67 -6.32 8.34 -7 8 C-5.08864614 4.46399535 -3.37357234 2.21027154 0 0 Z " fill="#D7E29D" transform="translate(19,36)"/>
<path d="M0 0 C0.33 0 0.66 0 1 0 C1 2.64 1 5.28 1 8 C-1.64 8 -4.28 8 -7 8 C-6.38125 7.71125 -5.7625 7.4225 -5.125 7.125 C-2.86674235 6.06279958 -2.86674235 6.06279958 -1 4 C-0.3574765 1.93125966 -0.3574765 1.93125966 0 0 Z " fill="#EBF0D6" transform="translate(91,26)"/>
<path d="M0 0 C1.67542976 0.28604898 3.34385343 0.61781233 5 1 C2.37801226 3.15377564 0.35595828 4.40072174 -3 5 C-1.125 1.125 -1.125 1.125 0 0 Z " fill="#DCD58A" transform="translate(15,114)"/>
<path d="M0 0 C0.6875 1.75 0.6875 1.75 1 4 C-0.4375 6.25 -0.4375 6.25 -2 8 C-3.32 7.67 -4.64 7.34 -6 7 C-5.195625 6.401875 -4.39125 5.80375 -3.5625 5.1875 C-0.77672016 3.19052724 -0.77672016 3.19052724 0 0 Z " fill="#D7E2A1" transform="translate(95,150)"/>
<path d="M0 0 C0.33 0.66 0.66 1.32 1 2 C0 4 0 4 -2.3125 5.1875 C-5 6 -5 6 -9 5 C-6.03 3.35 -3.06 1.7 0 0 Z " fill="#E8BD87" transform="translate(106,113)"/>
<path d="M0 0 C2.02054804 1.64169528 4.02043058 3.30911778 6 5 C6 5.33 6 5.66 6 6 C4.02 6 2.04 6 0 6 C0 4.02 0 2.04 0 0 Z " fill="#E7ECD4" transform="translate(13,245)"/>
<path d="M0 0 C0 0.66 0 1.32 0 2 C1.32 2.33 2.64 2.66 4 3 C4 3.66 4 4.32 4 5 C-1.75 3.25 -1.75 3.25 -4 1 C-2 0 -2 0 0 0 Z " fill="#EDC385" transform="translate(101,87)"/>
<path d="M0 0 C0.33 0.66 0.66 1.32 1 2 C0.34 2 -0.32 2 -1 2 C-1.33 3.65 -1.66 5.3 -2 7 C-2.99 7 -3.98 7 -5 7 C-4.67 5.68 -4.34 4.36 -4 3 C-3.34 3 -2.68 3 -2 3 C-2 2.34 -2 1.68 -2 1 C-1.34 0.67 -0.68 0.34 0 0 Z " fill="#F3FADA" transform="translate(27,63)"/>
</svg>
