<?xml version="1.0" encoding="UTF-8"?>
<svg version="1.1" xmlns="http://www.w3.org/2000/svg" width="512" height="512">
<path d="M0 0 C1.83352329 1.42354758 3.62234989 2.88808038 5.40112305 4.37939453 C6.59198327 5.36470538 7.7847614 6.34770187 8.97924805 7.32861328 C9.58440247 7.85025558 10.18955688 8.37189789 10.81304932 8.90934753 C13.12811023 10.79013696 13.12811023 10.79013696 15.95721436 12.09040833 C21.73933975 15.33738351 25.01249139 18.42291202 27.13433838 24.8276825 C28.9854709 31.55864964 30.27551105 38.40248304 31.58862305 45.25439453 C32.12141016 47.84123918 32.65801617 50.42699835 33.19970703 53.01196289 C34.47764645 59.15180081 35.70623519 65.3004204 36.91679668 71.45385647 C38.25186095 78.22938878 39.63723685 84.99421976 41.02941513 91.75821114 C42.81099693 100.41600115 44.5825361 109.07568268 46.31762695 117.74291992 C49.01639214 131.22021438 51.7623392 144.68415821 54.63549805 158.12548828 C54.92008165 159.45971276 55.20462285 160.79394628 55.48912048 162.12818909 C56.8304575 168.41362571 58.18172498 174.69677269 59.54589844 180.97729492 C60.02528167 183.215431 60.50438305 185.45362746 60.9831543 187.69189453 C61.20432922 188.69405502 61.42550415 189.69621552 61.65338135 190.72874451 C63.47730866 199.32089081 64.1853482 206.6407585 60.15112305 214.69189453 C56.00442134 220.98344195 50.6348937 223.90728964 43.3972168 225.57861328 C42.13071289 225.87703125 40.86420898 226.17544922 39.55932617 226.48291016 C38.23580603 226.78194887 36.91223786 227.0807751 35.58862305 227.37939453 C34.26089112 227.68883663 32.93341411 227.99937464 31.60620117 228.31103516 C26.46715472 229.50744077 21.33031163 230.68151333 16.15112305 231.69189453 C15.9809668 232.48853516 15.81081055 233.28517578 15.63549805 234.10595703 C12.56992647 247.50967958 12.56992647 247.50967958 6.21362305 251.56689453 C3.25264931 252.65459917 1.26620015 252.96675428 -1.84887695 252.69189453 C-2.15825195 253.74376953 -2.15825195 253.74376953 -2.47387695 254.81689453 C-5.20051407 260.51804486 -9.04734466 263.46053596 -14.84887695 265.69189453 C-15.93168945 266.86751953 -15.93168945 266.86751953 -17.03637695 268.06689453 C-20.85915714 271.6348227 -24.98823618 272.95269651 -29.84887695 274.69189453 C-33.22155221 275.91423985 -34.8869662 276.72652112 -37.59887695 279.19189453 C-41.31836842 282.38818387 -45.00054685 283.39420706 -49.84887695 283.69189453 C-59.38475124 281.24679856 -67.98384929 276.22168818 -76.69067383 271.74023438 C-94.36389045 261.80956968 -94.36389045 261.80956968 -113.84887695 260.69189453 C-115.00387695 260.77439453 -116.15887695 260.85689453 -117.34887695 260.94189453 C-118.17387695 261.18939453 -118.99887695 261.43689453 -119.84887695 261.69189453 C-121.17369241 264.08719122 -121.17369241 264.08719122 -121.84887695 266.69189453 C-123.84887695 268.69189453 -123.84887695 268.69189453 -126.1262207 268.92236328 C-127.00407227 268.90818359 -127.88192383 268.89400391 -128.78637695 268.87939453 C-129.66165039 268.87294922 -130.53692383 268.86650391 -131.4387207 268.85986328 C-133.84887695 268.69189453 -133.84887695 268.69189453 -136.84887695 267.69189453 C-138.69738196 267.50272605 -140.54617681 267.31567482 -142.39672852 267.14770508 C-151.18715909 266.30216275 -157.05581017 264.78441396 -163.22387695 258.12939453 C-166.84887695 252.69189453 -166.84887695 252.69189453 -166.84887695 248.69189453 C-168.05495605 248.71546021 -168.05495605 248.71546021 -169.28540039 248.73950195 C-201.48604998 249.28383533 -228.59602135 244.01529013 -258.53637695 232.00439453 C-260.57245678 231.1950137 -262.60875401 230.38617955 -264.64526367 229.57788086 C-268.60693731 228.00254294 -272.5654468 226.41963354 -276.52124023 224.82958984 C-280.40685808 223.26783277 -284.29822077 221.72191653 -288.1955719 220.18971252 C-290.96030749 219.09943987 -293.71696723 217.98927902 -296.47387695 216.87939453 C-297.40675537 216.51434814 -298.33963379 216.14930176 -299.30078125 215.77319336 C-300.13391846 215.43054443 -300.96705566 215.08789551 -301.82543945 214.73486328 C-302.51718262 214.45666748 -303.20892578 214.17847168 -303.92163086 213.8918457 C-306.61425529 212.21535101 -308.05679402 210.30356988 -309.84887695 207.69189453 C-311.6786794 197.40779013 -308.91125719 185.58059154 -307.5480957 175.29345703 C-307.30822861 173.44556171 -307.06880083 171.59760931 -306.82978821 169.74960327 C-306.33004919 165.90133114 -305.82416512 162.05392991 -305.31396484 158.20703125 C-304.66242264 153.28962372 -304.02782953 148.37019755 -303.39793682 143.44997597 C-302.90847879 139.64338206 -302.40940301 135.83809561 -301.90751076 132.03312302 C-301.66958688 130.21953192 -301.43477821 128.40552918 -301.20322227 126.59111404 C-300.87841629 124.05639725 -300.54048807 121.52375659 -300.19921875 118.99121094 C-300.10714645 118.25133942 -300.01507416 117.5114679 -299.92021179 116.74917603 C-299.08164369 110.69820833 -297.82505122 105.44350354 -293.09887695 101.25439453 C-289.07869079 99.32161272 -287.2769569 98.96597979 -282.84887695 99.69189453 C-281.12402569 100.53207696 -279.42951187 101.43572115 -277.7590332 102.37939453 C-276.29808228 103.19609619 -276.29808228 103.19609619 -274.80761719 104.02929688 C-273.34304077 104.85228271 -273.34304077 104.85228271 -271.84887695 105.69189453 C-270.13455617 106.62494309 -268.41846907 107.55475532 -266.70043945 108.48095703 C-254.98630949 114.83083868 -243.37363444 121.33588112 -231.82446289 127.98046875 C-226.61262998 130.97808515 -221.39689738 133.9688611 -216.17901611 136.95593262 C-214.41173539 137.96838379 -212.64565013 138.9828956 -210.87963867 139.99755859 C-209.20925537 140.9542041 -209.20925537 140.9542041 -207.50512695 141.93017578 C-206.04816406 142.76609253 -206.04816406 142.76609253 -204.56176758 143.61889648 C-199.04315275 146.73688873 -193.43503548 149.69732659 -187.84887695 152.69189453 C-188.06407486 151.68822342 -188.27927277 150.68455231 -188.50099182 149.65046692 C-190.52770529 140.19171732 -192.54405007 130.7308093 -194.5502634 121.2676897 C-195.58201167 116.4026715 -196.61739781 111.53848729 -197.66113281 106.67602539 C-198.66825217 101.9834914 -199.66576912 97.2890099 -200.65666008 92.5930233 C-201.03639356 90.80174752 -201.41958182 89.01120053 -201.80627632 87.22141457 C-202.34729973 84.71447415 -202.87598265 82.20522396 -203.40185547 79.69506836 C-203.5644133 78.95563492 -203.72697113 78.21620148 -203.89445496 77.45436096 C-205.21896319 71.01796842 -204.39719031 67.24302568 -201.1887207 61.62939453 C-200.64610596 60.67339355 -200.10349121 59.71739258 -199.54443359 58.73242188 C-198.9642749 57.72904785 -198.38411621 56.72567383 -197.78637695 55.69189453 C-197.19655029 54.66402832 -196.60672363 53.63616211 -195.99902344 52.57714844 C-194.29064852 49.61047575 -192.57077914 46.65072948 -190.84887695 43.69189453 C-190.41994141 42.94520508 -189.99100586 42.19851562 -189.54907227 41.42919922 C-183.95122975 31.69950059 -179.84174242 26.13663822 -168.84887695 22.69189453 C-164.88742796 21.73208305 -160.89578096 20.96809735 -156.89111328 20.21166992 C-155.12579506 19.86952202 -155.12579506 19.86952202 -153.32481384 19.52046204 C-150.11418293 18.89961271 -146.90243935 18.28497597 -143.69008088 17.67314076 C-140.30101628 17.02610268 -136.91350113 16.37104931 -133.52580261 15.71690369 C-127.09583165 14.47656584 -120.66450636 13.24340397 -114.2326619 12.01282257 C-106.9933873 10.62739127 -99.75568229 9.23384838 -92.51809275 7.8396455 C-79.98652529 5.42590833 -67.45474779 3.01315346 -54.91921711 0.62007236 C-49.49739176 -0.41501311 -44.07724815 -1.45691837 -38.66146851 -2.52322388 C-37.70472323 -2.70999726 -36.74797796 -2.89677065 -35.76224041 -3.08920383 C-34.01734509 -3.43013298 -32.27315383 -3.77469898 -30.52991199 -4.12398434 C-19.24668616 -6.31724816 -9.71808536 -6.87567693 0 0 Z " fill="#FAAC3D" transform="translate(324.848876953125,207.30810546875)"/>
<path d="M0 0 C1.41503625 0.85893139 2.83090327 1.71649551 4.24755859 2.57275391 C7.85611049 4.75816967 11.45432832 6.95999671 15.05004883 9.16644287 C18.25128959 11.12743354 21.46133376 13.07381789 24.671875 15.01953125 C25.8666333 15.74419652 27.06137634 16.46888694 28.25610352 17.19360352 C29.42073424 17.89990471 30.58536639 18.60620356 31.75 19.3125 C34.02501135 20.69226173 36.29969057 22.07256642 38.57421875 23.453125 C40.20689697 24.4440918 40.20689697 24.4440918 41.87255859 25.45507812 C45.11640957 27.43226398 48.34930238 29.42657087 51.58203125 31.421875 C53.57514806 32.63602881 55.56861833 33.84960264 57.5625 35.0625 C58.46242676 35.62565918 59.36235352 36.18881836 60.28955078 36.76904297 C61.12083496 37.27064941 61.95211914 37.77225586 62.80859375 38.2890625 C63.88451782 38.95156006 63.88451782 38.95156006 64.98217773 39.62744141 C68.57612243 40.98607289 71.31437698 39.76560932 74.75 38.375 C83.42376718 35.96562023 90.3285155 37.22082798 98.125 41.4375 C101.21871921 43.44010177 104.13937627 45.63270979 107.0625 47.875 C108.72337533 49.12317198 110.38484929 50.37054774 112.046875 51.6171875 C112.88541016 52.24979492 113.72394531 52.88240234 114.58789062 53.53417969 C118.63075575 56.5671066 122.71786202 59.53752792 126.8125 62.5 C127.52978271 63.02327881 128.24706543 63.54655762 128.98608398 64.08569336 C139.12054611 71.87579891 139.12054611 71.87579891 151.234375 74.53515625 C152.36552734 74.53032227 152.36552734 74.53032227 153.51953125 74.52539062 C154.29683594 74.51701172 155.07414063 74.50863281 155.875 74.5 C156.66777344 74.49548828 157.46054687 74.49097656 158.27734375 74.48632812 C160.22659508 74.47458565 162.17580738 74.45665146 164.125 74.4375 C163.98191406 73.51517578 163.98191406 73.51517578 163.8359375 72.57421875 C163.72507812 71.76597656 163.61421875 70.95773438 163.5 70.125 C163.38398438 69.32449219 163.26796875 68.52398437 163.1484375 67.69921875 C163.125 65.4375 163.125 65.4375 165.125 62.4375 C169.07114377 60.75764057 173.18197408 59.56241005 177.28149414 58.31103516 C179.29361732 57.69329714 181.29589898 57.04918206 183.29882812 56.40234375 C184.58803282 56.00096611 185.87773296 55.6011757 187.16796875 55.203125 C188.33352295 54.83993164 189.49907715 54.47673828 190.69995117 54.10253906 C194.48689534 53.36723106 197.3628398 53.68836416 201.125 54.4375 C202.56168294 58.2985854 203.23685208 61.333927 203.125 65.4375 C222.81072789 59.52223125 240.2723507 51.26100866 257.59204102 40.1965332 C258.37506592 39.70628662 259.15809082 39.21604004 259.96484375 38.7109375 C260.64925537 38.27185059 261.33366699 37.83276367 262.03881836 37.38037109 C264.6540777 36.19837793 266.28777719 35.97922988 269.125 36.4375 C272.46342562 39.75591345 272.65368786 42.8718528 273.01635742 47.4465332 C273.07531693 48.14478714 273.13427643 48.84304108 273.19502258 49.56245422 C273.38647139 51.87021762 273.55875888 54.17897182 273.73046875 56.48828125 C273.85971324 58.1058075 273.98996336 59.72325368 274.12117004 61.34062195 C274.39390935 64.73699362 274.6577727 68.13389754 274.91479492 71.53149414 C275.24129818 75.84462541 275.5843097 80.15622689 275.93352795 84.46757221 C276.20358653 87.81420381 276.46719048 91.16131921 276.72872353 94.50862694 C276.85297392 96.09562808 276.97853075 97.68252759 277.10552025 99.2693119 C278.8281167 120.97658863 278.8281167 120.97658863 278.125 129.4375 C270.15457184 137.40792816 248.38417525 135.61667258 237.78442383 135.62744141 C212.98395753 135.36697877 212.98395753 135.36697877 207.125 132.4375 C207.5271875 134.0153125 207.5271875 134.0153125 207.9375 135.625 C208.125 139.4375 208.125 139.4375 206.3828125 142.2109375 C201.38306679 145.62802989 197.0155837 144.56990033 191.1875 143.875 C190.11564453 143.77380859 189.04378906 143.67261719 187.93945312 143.56835938 C176.80201551 142.43047875 176.80201551 142.43047875 173.125 140.4375 C170.60982364 135.60293946 170.4927274 129.92595891 170 124.5625 C169.91363281 123.68335938 169.82726562 122.80421875 169.73828125 121.8984375 C169.52765693 119.74538892 169.32547292 117.59151751 169.125 115.4375 C168.40666992 115.56302246 167.68833984 115.68854492 166.94824219 115.81787109 C142.10263254 120.07104822 115.52197629 124.54811027 91.125 116.4375 C89.46128411 116.08973811 87.79493874 115.75403354 86.125 115.4375 C79.91108417 125.34385016 73.96151495 134.83138787 70.13671875 145.921875 C68.24751047 150.61936585 65.28440165 152.66456557 61.125 155.4375 C52.49825466 156.77037131 45.06178769 154.14630855 37.08984375 151.14453125 C35.82895267 150.68447976 34.56747522 150.22603271 33.3054657 149.76905823 C29.91957101 148.53822612 26.54187355 147.2862382 23.16535187 146.02996063 C19.6263465 144.71732188 16.08026374 143.42410216 12.53466797 142.12939453 C8.14510528 140.5250406 3.75641019 138.91843717 -0.62896729 137.30267334 C-9.93982311 133.87219128 -19.26470996 130.48413548 -28.6068325 127.13973808 C-30.62622046 126.41671228 -32.64524513 125.69268173 -34.66413879 124.96827698 C-35.31806075 124.73364841 -35.97198271 124.49901983 -36.64572048 124.2572813 C-37.94595233 123.79072919 -39.24618237 123.32417206 -40.54641056 122.85760975 C-43.69146829 121.72932753 -46.8371125 120.60275767 -49.9836731 119.47866821 C-53.47827484 118.22872831 -56.96990583 116.97080814 -60.4609375 115.7109375 C-61.4748909 115.35036758 -62.4888443 114.98979767 -63.53352356 114.61830139 C-81.21650856 108.20797606 -81.21650856 108.20797606 -84.5 103.125 C-87.77907193 94.33112528 -84.81344746 87.35647803 -81.7109375 78.93359375 C-81.28124664 77.73750992 -80.85155579 76.54142609 -80.40884399 75.30909729 C-79.26620844 72.13692459 -78.11250245 68.96923387 -76.95349121 65.80303955 C-75.79561483 62.62967873 -74.65488102 59.45016788 -73.51171875 56.27148438 C-71.36845328 50.32839613 -69.19698799 44.39640849 -67.00036621 38.47283936 C-66.30229913 36.59001183 -65.60742505 34.70599314 -64.91760254 32.82012939 C-64.13903061 30.69855706 -63.34358098 28.58449612 -62.5390625 26.47265625 C-62.13381348 25.39508057 -61.72856445 24.31750488 -61.31103516 23.20727539 C-59.18912894 19.11461541 -56.45790836 16.26852689 -52.375 14.125 C-49.75785245 13.40528442 -47.57613137 13.28314964 -44.875 13.4375 C-44.49601562 12.40109375 -44.49601562 12.40109375 -44.109375 11.34375 C-40.79627774 3.54329316 -36.15341359 -4.93078226 -28.875 -9.5625 C-18.44109792 -13.04359262 -8.46359703 -5.22765693 0 0 Z " fill="#4269C4" transform="translate(218.875,31.5625)"/>
<path d="M0 0 C1.85357819 1.41303054 3.64565824 2.88008307 5.43164062 4.37744141 C6.62250084 5.36275225 7.81527898 6.34574875 9.00976562 7.32666016 C9.61492004 7.84830246 10.22007446 8.36994476 10.84356689 8.90739441 C13.15862781 10.78818384 13.15862781 10.78818384 15.98773193 12.0884552 C21.76985733 15.33543039 25.04300897 18.42095889 27.16485596 24.82572937 C29.01598847 31.55669651 30.30602863 38.40052991 31.61914062 45.25244141 C32.15192774 47.83928605 32.68853375 50.42504523 33.23022461 53.01000977 C34.50816403 59.14984769 35.73675277 65.29846728 36.94731426 71.45190334 C38.28237853 78.22743566 39.66775443 84.99226664 41.05993271 91.75625801 C42.84151451 100.41404802 44.61305368 109.07372955 46.34814453 117.7409668 C49.04690971 131.21826126 51.79285678 144.68220509 54.66601562 158.12353516 C54.95059922 159.45775963 55.23514043 160.79199315 55.51963806 162.12623596 C56.86097507 168.41167258 58.21224256 174.69481957 59.57641602 180.9753418 C60.05579925 183.21347787 60.53490063 185.45167434 61.01367188 187.68994141 C61.34543427 189.19318214 61.34543427 189.19318214 61.68389893 190.72679138 C63.50782624 199.31893768 64.21586578 206.63880537 60.18164062 214.68994141 C56.03493891 220.98148883 50.66541128 223.90533652 43.42773438 225.57666016 C42.16123047 225.87507812 40.89472656 226.17349609 39.58984375 226.48095703 C38.2663236 226.77999574 36.94275543 227.07882198 35.61914062 227.37744141 C34.2914087 227.68688351 32.96393169 227.99742151 31.63671875 228.30908203 C26.4976723 229.50548765 21.36082921 230.6795602 16.18164062 231.68994141 C16.01148438 232.48658203 15.84132813 233.28322266 15.66601562 234.10400391 C12.60044404 247.50772646 12.60044404 247.50772646 6.24414062 251.56494141 C3.28316689 252.65264604 1.29671772 252.96480115 -1.81835938 252.68994141 C-2.02460938 253.39119141 -2.23085938 254.09244141 -2.44335938 254.81494141 C-5.16999649 260.51609174 -9.01682708 263.45858283 -14.81835938 265.68994141 C-15.54023438 266.47369141 -16.26210938 267.25744141 -17.00585938 268.06494141 C-20.82863956 271.63286958 -24.95771861 272.95074338 -29.81835938 274.68994141 C-33.19103463 275.91228673 -34.85644863 276.724568 -37.56835938 279.18994141 C-41.28785084 282.38623075 -44.97002928 283.39225394 -49.81835938 283.68994141 C-59.35423367 281.24484543 -67.95333171 276.21973506 -76.66015625 271.73828125 C-94.33397677 261.77399433 -94.33397677 261.77399433 -113.81835938 260.68994141 C-115.01460937 260.87556641 -116.21085938 261.06119141 -117.44335938 261.25244141 C-118.22710937 261.39681641 -119.01085937 261.54119141 -119.81835938 261.68994141 C-118.32639347 253.67817073 -115.57504397 246.33067092 -112.63085938 238.75244141 C-112.13578628 237.46463877 -111.6412425 236.17663253 -111.1472168 234.88842773 C-109.71230306 231.15245888 -108.26606844 227.42097064 -106.81835938 223.68994141 C-106.05791417 221.72380661 -105.29749441 219.75766197 -104.53710938 217.79150391 C-102.97281912 213.75424064 -101.39936173 209.72068802 -99.81835938 205.68994141 C-98.99078125 205.67318359 -98.16320312 205.65642578 -97.31054688 205.63916016 C-82.72745152 204.58401179 -70.87151741 197.16717735 -58.31054688 190.18603516 C-57.27401978 189.62843506 -57.27401978 189.62843506 -56.21655273 189.05957031 C-54.40263758 188.08157845 -52.60756888 187.06884668 -50.81445312 186.05322266 C-45.50513796 183.69239287 -39.49381159 184.43399069 -33.81835938 184.68994141 C-37.28279131 168.47174136 -40.85312427 152.29352836 -44.81835938 136.18994141 C-47.47773633 125.38774006 -49.98232505 114.56665222 -52.31835938 103.68994141 C-55.44606949 89.1362353 -58.91100856 74.67738688 -62.47149658 60.22415161 C-63.40217198 56.43267352 -64.29749661 52.6354782 -65.15429688 48.82666016 C-67.61273846 37.94533129 -70.68813485 27.41655555 -74.31640625 16.85986328 C-74.65478516 15.85375 -74.99316406 14.84763672 -75.34179688 13.81103516 C-75.80465088 12.47190063 -75.80465088 12.47190063 -76.27685547 11.10571289 C-76.86208993 8.49484952 -76.54606478 7.21041126 -75.81835938 4.68994141 C-68.67278931 3.24693088 -61.52320908 1.82520939 -54.37060547 0.41748047 C-51.94322429 -0.06277421 -49.5167633 -0.54770644 -47.09130859 -1.03759766 C-11.42635912 -8.23225605 -11.42635912 -8.23225605 0 0 Z " fill="#FAAC3D" transform="translate(324.818359375,207.31005859375)"/>
<path d="M0 0 C1.72485127 0.84018243 3.41936509 1.74382662 5.08984375 2.6875 C6.55079468 3.50420166 6.55079468 3.50420166 8.04125977 4.33740234 C9.01764404 4.88605957 9.99402832 5.4347168 11 6 C12.71432079 6.93304856 14.43040788 7.86286079 16.1484375 8.7890625 C27.86439744 15.13993613 39.47822378 21.64669257 51.02880859 28.29296875 C56.21865333 31.27467741 61.41732528 34.24095201 66.6149292 37.20910645 C70.60864946 39.4899713 74.6018056 41.77181586 78.59326172 44.05664062 C80.94031081 45.3955048 83.29006858 46.72797177 85.64501953 48.05273438 C91.51998882 51.36701955 97.2549713 54.7739989 102.82714844 58.58349609 C106.93905007 61.26408635 111.29402955 63.50984766 115.625 65.8125 C123.03863837 69.78095133 130.33786825 73.83824159 137.34423828 78.49731445 C139.88376102 80.10926512 141.41700454 81.06375069 144.46484375 80.73046875 C145.71974609 80.36888672 145.71974609 80.36888672 147 80 C152.14497475 79.73491933 156.68087135 80.42250024 161.625 81.75 C162.31432617 81.93119385 163.00365234 82.1123877 163.71386719 82.29907227 C165.12536384 82.67435629 166.53554407 83.05462802 167.94433594 83.43994141 C169.88826143 83.96955721 171.83852653 84.47574243 173.7890625 84.98046875 C174.93117187 85.29628906 176.07328125 85.61210937 177.25 85.9375 C178.77367187 86.35322266 178.77367187 86.35322266 180.328125 86.77734375 C183.74560167 88.34118907 185.15736829 89.72066287 187 93 C186.67879916 99.509135 184.22999383 105.27622577 181.921875 111.3125 C181.51342346 112.39901855 181.10497192 113.48553711 180.68414307 114.60498047 C179.37945398 118.07255467 178.06529555 121.53643662 176.75 125 C175.03261401 129.54022319 173.31997633 134.08221678 171.609375 138.625 C170.99322327 140.25477783 170.99322327 140.25477783 170.36462402 141.91748047 C167.70287904 148.99703357 165.24345635 156.10368091 163.04394531 163.33984375 C162.01116525 165.97154898 161.24294293 167.31382619 159 169 C156.625 169.328125 156.625 169.328125 154 169.25 C152.700625 169.22679687 152.700625 169.22679687 151.375 169.203125 C149 169 149 169 146 168 C144.151495 167.81083152 142.30270015 167.62378029 140.45214844 167.45581055 C131.66171786 166.61026822 125.79306679 165.09251943 119.625 158.4375 C116 153 116 153 116 149 C114.7939209 149.02356567 114.7939209 149.02356567 113.56347656 149.04760742 C81.36282697 149.5919408 54.2528556 144.3233956 24.3125 132.3125 C22.27642017 131.50311917 20.24012295 130.69428502 18.20361328 129.88598633 C14.24193964 128.31064841 10.28343016 126.72773901 6.32763672 125.13769531 C2.44201888 123.57593824 -1.44934382 122.030022 -5.34669495 120.49781799 C-8.11143053 119.40754534 -10.86809028 118.29738449 -13.625 117.1875 C-14.55787842 116.82245361 -15.49075684 116.45740723 -16.4519043 116.08129883 C-17.2850415 115.7386499 -18.11817871 115.39600098 -18.9765625 115.04296875 C-19.66830566 114.76477295 -20.36004883 114.48657715 -21.07275391 114.19995117 C-23.76537834 112.52345648 -25.20791707 110.61167535 -27 108 C-28.82980245 97.7158956 -26.06238024 85.88869701 -24.69921875 75.6015625 C-24.45935166 73.75366718 -24.21992388 71.90571478 -23.98091125 70.05770874 C-23.48117224 66.20943661 -22.97528817 62.36203537 -22.46508789 58.51513672 C-21.81354569 53.59772919 -21.17895258 48.67830302 -20.54905987 43.75808144 C-20.05960184 39.95148753 -19.56052606 36.14620108 -19.0586338 32.34122849 C-18.82070993 30.52763739 -18.58590126 28.71363465 -18.35434532 26.89921951 C-18.02953934 24.36450272 -17.69161111 21.83186206 -17.3503418 19.29931641 C-17.2582695 18.55944489 -17.1661972 17.81957336 -17.07133484 17.05728149 C-16.23276673 11.0063138 -14.97617427 5.75160901 -10.25 1.5625 C-6.22981383 -0.37028181 -4.42807995 -0.72591475 0 0 Z " fill="#51504E" transform="translate(42,307)"/>
<path d="M0 0 C1.41649593 0.85967258 2.83382801 1.71796878 4.25195312 2.57495117 C7.8613177 4.76052003 11.46033592 6.96250339 15.05651855 9.16967773 C18.82737904 11.48092925 22.60885842 13.77468537 26.38955688 16.0697937 C29.27637877 17.82243751 32.16185434 19.57716432 35.04345703 21.33837891 C40.72711423 24.80410368 46.43336801 28.21924125 52.203125 31.5390625 C53.32654297 32.18641357 54.44996094 32.83376465 55.60742188 33.50073242 C57.74013684 34.72404778 59.87670497 35.94067693 62.01757812 37.1496582 C62.95537109 37.68679443 63.89316406 38.22393066 64.859375 38.77734375 C65.68663086 39.24519287 66.51388672 39.71304199 67.36621094 40.19506836 C67.94661133 40.6050708 68.52701172 41.01507324 69.125 41.4375 C69.125 42.0975 69.125 42.7575 69.125 43.4375 C69.85259521 43.70844482 70.58019043 43.97938965 71.32983398 44.25854492 C75.94856686 46.20665052 79.99410339 49.02595505 84.1875 51.75 C85.08533203 52.31912109 85.98316406 52.88824219 86.90820312 53.47460938 C95.31071975 58.9159417 95.31071975 58.9159417 98.125 63.4375 C98.79802373 67.39151439 98.29408585 69.11185318 96.4375 72.6875 C93.58467649 76.08004687 91.48031939 77.19006581 87.04272461 77.65625 C84.50344442 77.78196991 81.97991598 77.81687752 79.4375 77.8125 C78.51428955 77.81161377 77.5910791 77.81072754 76.63989258 77.80981445 C67.49960928 77.65561082 58.86511437 76.06347274 50.125 73.4375 C49.38419189 73.23165283 48.64338379 73.02580566 47.88012695 72.8137207 C45.6875 72.125 45.6875 72.125 42.125 70.4375 C41.08203125 68.01953125 41.08203125 68.01953125 40.9375 65.25 C40.11988693 58.13582652 37.48628604 53.31580515 32.125 48.5625 C26.30180519 44.43773701 21.19454401 43.34235625 14.125 44.4375 C6.04870729 47.20070958 0.30893456 50.95045921 -3.875 58.4375 C-4.49375 59.530625 -5.1125 60.62375 -5.75 61.75 C-8.1298253 69.55053849 -7.53606999 76.77268497 -4.21484375 84.20703125 C-1.37535417 88.93399495 3.00646191 92.4158153 8.125 94.4375 C11.16514283 94.75453001 11.16514283 94.75453001 14.4375 94.6875 C16.07138672 94.69523437 16.07138672 94.69523437 17.73828125 94.703125 C21.15624663 94.58556797 21.15624663 94.58556797 24.31640625 93.28515625 C29.82301884 92.05958196 34.33185787 93.33578471 39.75 94.625 C40.77351563 94.84736328 41.79703125 95.06972656 42.8515625 95.29882812 C47.91100224 96.44840135 51.67223407 97.75419922 56.125 100.4375 C58.17518459 101.02240577 58.17518459 101.02240577 60.24609375 101.3046875 C66.00170936 102.45748134 70.95888892 104.96456798 76.1875 107.5625 C77.62899414 108.26439453 77.62899414 108.26439453 79.09960938 108.98046875 C81.44572305 110.12434507 83.78719966 111.27675383 86.125 112.4375 C85.47563849 115.70477453 84.27744796 118.14466703 82.578125 121 C82.06515869 121.87398437 81.55219238 122.74796875 81.02368164 123.6484375 C80.4796167 124.56882813 79.93555176 125.48921875 79.375 126.4375 C75.40119057 133.23809987 71.95248112 139.82088895 69.140625 147.17578125 C67.39555244 151.06192361 64.9583683 153.52081585 61.125 155.4375 C52.35742191 156.45437003 45.21535678 154.20413387 37.08984375 151.14453125 C35.82895267 150.68447976 34.56747522 150.22603271 33.3054657 149.76905823 C29.91957101 148.53822612 26.54187355 147.2862382 23.16535187 146.02996063 C19.6263465 144.71732188 16.08026374 143.42410216 12.53466797 142.12939453 C8.14510528 140.5250406 3.75641019 138.91843717 -0.62896729 137.30267334 C-9.93982311 133.87219128 -19.26470996 130.48413548 -28.6068325 127.13973808 C-30.62622046 126.41671228 -32.64524513 125.69268173 -34.66413879 124.96827698 C-35.31806075 124.73364841 -35.97198271 124.49901983 -36.64572048 124.2572813 C-37.94595233 123.79072919 -39.24618237 123.32417206 -40.54641056 122.85760975 C-43.69146829 121.72932753 -46.8371125 120.60275767 -49.9836731 119.47866821 C-53.47827484 118.22872831 -56.96990583 116.97080814 -60.4609375 115.7109375 C-61.4748909 115.35036758 -62.4888443 114.98979767 -63.53352356 114.61830139 C-81.21650856 108.20797606 -81.21650856 108.20797606 -84.5 103.125 C-87.77907193 94.33112528 -84.81344746 87.35647803 -81.7109375 78.93359375 C-81.28124664 77.73750992 -80.85155579 76.54142609 -80.40884399 75.30909729 C-79.26620844 72.13692459 -78.11250245 68.96923387 -76.95349121 65.80303955 C-75.79561483 62.62967873 -74.65488102 59.45016788 -73.51171875 56.27148438 C-71.36845328 50.32839613 -69.19698799 44.39640849 -67.00036621 38.47283936 C-66.30229913 36.59001183 -65.60742505 34.70599314 -64.91760254 32.82012939 C-64.13903061 30.69855706 -63.34358098 28.58449612 -62.5390625 26.47265625 C-62.13381348 25.39508057 -61.72856445 24.31750488 -61.31103516 23.20727539 C-59.18912894 19.11461541 -56.45790836 16.26852689 -52.375 14.125 C-49.75785245 13.40528442 -47.57613137 13.28314964 -44.875 13.4375 C-44.49601562 12.40109375 -44.49601562 12.40109375 -44.109375 11.34375 C-40.79627774 3.54329316 -36.15341359 -4.93078226 -28.875 -9.5625 C-18.440946 -13.04364331 -8.46378653 -5.22750662 0 0 Z " fill="#ADC36D" transform="translate(218.875,31.5625)"/>
<path d="M0 0 C6.80035273 19.6895398 12.19528691 39.3491302 16.61105347 59.69750977 C18.12285769 66.64001254 19.80101561 73.53859369 21.5 80.4375 C24.33382429 92.02329205 26.94469703 103.65001648 29.50521851 115.29833984 C32.32737516 128.12492462 35.33080109 140.89641195 38.45703125 153.65234375 C38.97136937 155.76822547 39.48569215 157.88411092 40 160 C40.42804932 161.72694092 40.42804932 161.72694092 40.86474609 163.48876953 C41.14012207 164.62813965 41.41549805 165.76750977 41.69921875 166.94140625 C41.94889404 167.96049072 42.19856934 168.9795752 42.45581055 170.02954102 C43.01565612 173.08545895 43.09613133 175.90041427 43 179 C42.2471875 178.979375 41.494375 178.95875 40.71875 178.9375 C31.04975313 179.12524751 24.54809582 182.22717296 16.29492188 186.75732422 C11.97320708 189.0974868 7.57743053 191.29138667 3.1875 193.5 C2.32116943 193.94529053 1.45483887 194.39058105 0.56225586 194.84936523 C-0.65385376 195.46533569 -0.65385376 195.46533569 -1.89453125 196.09375 C-2.61487549 196.46177734 -3.33521973 196.82980469 -4.07739258 197.20898438 C-6 198 -6 198 -9 198 C-12.67064936 183.12181445 -16.21628992 168.2318992 -19.4375 153.25 C-21.79477414 142.29025365 -24.32078663 131.38545955 -27 120.5 C-30.02245954 108.21532262 -32.83999449 95.89998187 -35.48950195 83.52954102 C-36.7970309 77.43560477 -38.13457458 71.35605358 -39.62890625 65.3046875 C-42.5722796 53.33745535 -44.82301844 41.4670915 -46.375 29.25 C-46.4606723 28.577341 -46.5463446 27.90468201 -46.63461304 27.2116394 C-47.39927043 21.11322253 -48.09835603 15.15361588 -48 9 C-40.00222393 7.32257933 -32.00207481 5.65679105 -24 4 C-22.99839844 3.7922998 -21.99679688 3.58459961 -20.96484375 3.37060547 C-18.22747872 2.80497647 -15.48899841 2.24515884 -12.75 1.6875 C-11.9240332 1.51637695 -11.09806641 1.34525391 -10.24707031 1.16894531 C-6.73795929 0.46004888 -3.59524232 0 0 0 Z " fill="#B53016" transform="translate(248,213)"/>
<path d="M0 0 C1.14452637 0.38607422 2.28905273 0.77214844 3.46826172 1.16992188 C6.65499681 2.25234915 9.83699379 3.34599131 13.01464844 4.45465088 C14.2932116 4.90038663 15.5726718 5.34355787 16.85302734 5.78411865 C18.66488419 6.41043445 20.47124336 7.05258542 22.27734375 7.6953125 C23.33171631 8.06672363 24.38608887 8.43813477 25.47241211 8.82080078 C28 10 28 10 30 13 C30.36247365 16.33475757 30.19904764 18.50823524 28.9375 21.625 C25.848192 25.41189368 22.52862622 27.69298299 17.68359375 28.28125 C14.7224293 28.32027688 11.98970112 28.26282519 9.1171875 27.5 C1.36698633 25.66969419 -6.30713647 26.3923104 -13.29296875 30.125 C-15 31 -15 31 -17 31 C-17 31.66 -17 32.32 -17 33 C-15.72898437 33.103125 -14.45796875 33.20625 -13.1484375 33.3125 C-5.74094734 34.05403232 1.5789144 35.34233582 8.91552734 36.58398438 C11.38967981 37.00248306 13.8646759 37.41567847 16.33984375 37.828125 C17.92192662 38.09344238 19.50395973 38.35905668 21.0859375 38.625 C21.82137787 38.74794434 22.55681824 38.87088867 23.31454468 38.99755859 C26.57743462 39.55145676 29.80700322 40.12174464 33 41 C33.4400827 48.04132322 32.19214548 53.41439252 27.5625 58.875 C23.56614095 62.18905384 21.22879605 63.29048867 16 63 C15.79375 63.70125 15.5875 64.4025 15.375 65.125 C12.64836289 70.82615033 8.8015323 73.76864142 3 76 C2.278125 76.78375 1.55625 77.5675 0.8125 78.375 C-3.01028018 81.94292817 -7.13935923 83.26080197 -12 85 C-15.37267525 86.22234532 -17.03808925 87.03462659 -19.75 89.5 C-23.46949146 92.69628934 -27.1516699 93.70231253 -32 94 C-41.53587429 91.55490403 -50.13497234 86.52979365 -58.84179688 82.04833984 C-76.51561739 72.08405292 -76.51561739 72.08405292 -96 71 C-97.19625 71.185625 -98.3925 71.37125 -99.625 71.5625 C-100.800625 71.7790625 -100.800625 71.7790625 -102 72 C-100.50803409 63.98822933 -97.75668459 56.64072951 -94.8125 49.0625 C-94.31742691 47.77469737 -93.82288312 46.48669113 -93.32885742 45.19848633 C-91.89394369 41.46251748 -90.44770906 37.73102924 -89 34 C-88.23955479 32.0338652 -87.47913504 30.06772057 -86.71875 28.1015625 C-85.15445975 24.06429923 -83.58100235 20.03074661 -82 16 C-81.17242187 15.98324219 -80.34484375 15.96648437 -79.4921875 15.94921875 C-65.67340044 14.94937131 -54.59258791 8.28896163 -42.64697266 1.70263672 C-27.01182928 -6.91150805 -16.50837409 -5.6230657 0 0 Z " fill="#FECDCE" transform="translate(307,397)"/>
<path d="M0 0 C4.06050477 2.18242699 7.6516291 4.90815526 11.30224609 7.70849609 C12.96312143 8.95666807 14.62459538 10.20404384 16.28662109 11.45068359 C17.54442383 12.39959473 17.54442383 12.39959473 18.82763672 13.36767578 C22.87050184 16.40060269 26.95760811 19.37102401 31.05224609 22.33349609 C31.76952881 22.8567749 32.48681152 23.38005371 33.22583008 23.91918945 C43.46048534 31.75117216 43.46048534 31.75117216 55.69287109 34.36865234 C56.49208984 34.36542969 57.29130859 34.36220703 58.11474609 34.35888672 C58.93974609 34.35050781 59.76474609 34.34212891 60.61474609 34.33349609 C61.45521484 34.32898438 62.29568359 34.32447266 63.16162109 34.31982422 C65.22936011 34.3080757 67.29706234 34.29014131 69.36474609 34.27099609 C69.94287892 38.50166758 70.51214639 42.73341634 71.07373047 46.96630859 C71.26539264 48.40184542 71.45934535 49.83707859 71.65576172 51.27197266 C72.7540224 59.30720641 73.61936977 67.1389524 73.36474609 75.27099609 C16.79360637 85.15635227 16.79360637 85.15635227 -9.63525391 74.27099609 C-9.63525391 73.61099609 -9.63525391 72.95099609 -9.63525391 72.27099609 C-10.86308594 71.89974609 -10.86308594 71.89974609 -12.11572266 71.52099609 C-16.96975519 69.79703338 -21.49555999 67.50267129 -26.09423828 65.19287109 C-30.56305692 63.02126022 -34.70965653 61.7123683 -39.58154297 60.76586914 C-41.63525391 60.27099609 -41.63525391 60.27099609 -44.50634766 58.79052734 C-49.06241432 56.5779057 -53.73638364 55.84597553 -58.69775391 54.95849609 C-59.67808594 54.76449219 -60.65841797 54.57048828 -61.66845703 54.37060547 C-63.09254883 54.11053711 -63.09254883 54.11053711 -64.54541016 53.84521484 C-65.40271729 53.68625732 -66.26002441 53.5272998 -67.14331055 53.36352539 C-70.11833083 53.25305878 -71.93942669 54.06761078 -74.63525391 55.27099609 C-81.78362225 56.14051593 -88.085777 56.18949768 -93.99072266 51.75146484 C-100.57036512 45.82822377 -103.64295013 39.78437388 -104.19775391 31.02099609 C-103.96915789 23.55006256 -100.77429984 17.00048163 -95.99462891 11.32177734 C-90.56954062 6.28962769 -83.99202277 3.1123735 -76.57275391 2.77099609 C-69.40676537 3.12596766 -64.69009084 5.84817776 -59.82275391 11.02099609 C-54.77048718 17.23828323 -53.47275005 22.30830733 -53.63525391 30.27099609 C-50.98959028 30.89672136 -48.34372898 31.52159026 -45.69775391 32.14599609 C-44.96234375 32.32001953 -44.22693359 32.49404297 -43.46923828 32.67333984 C-41.95699291 33.02993919 -40.44385836 33.38278534 -38.92993164 33.73217773 C-37.4281182 34.08482187 -35.92989761 34.45322815 -34.4362793 34.83911133 C-28.56917913 36.29334983 -22.97984123 36.60511648 -16.94775391 36.58349609 C-16.03703125 36.59960938 -15.12630859 36.61572266 -14.18798828 36.63232422 C-8.91511356 36.63615347 -5.18507721 36.24112074 -0.63525391 33.27099609 C1.75173894 30.12450552 1.83725975 27.12985763 1.36474609 23.27099609 C-1.3318046 19.30063645 -4.18301739 17.02247028 -8.27587891 14.57177734 C-9.34580078 13.92015625 -10.41572266 13.26853516 -11.51806641 12.59716797 C-13.18482422 11.60040039 -13.18482422 11.60040039 -14.88525391 10.58349609 C-17.1027149 9.25276578 -19.31648992 7.91586689 -21.52587891 6.57177734 C-22.50588867 5.98565674 -23.48589844 5.39953613 -24.49560547 4.7956543 C-25.20168945 4.29251709 -25.90777344 3.78937988 -26.63525391 3.27099609 C-26.63525391 2.61099609 -26.63525391 1.95099609 -26.63525391 1.27099609 C-17.47296737 -3.79654016 -9.51286227 -4.45303941 0 0 Z " fill="#FECDCE" transform="translate(314.63525390625,71.72900390625)"/>
<path d="M0 0 C4.03621889 1.48562427 7.60213077 3.41513958 11.3046875 5.59765625 C11.90572296 5.95081406 12.50675842 6.30397186 13.12600708 6.66783142 C15.04426917 7.79614526 16.95962178 8.92929911 18.875 10.0625 C20.12221651 10.79652875 21.36961105 11.53025507 22.6171875 12.26367188 C29.54155964 16.33941741 36.44039624 20.45668088 43.32655334 24.59660339 C47.81923182 27.29609333 52.32236872 29.97742507 56.83203125 32.6484375 C57.48292725 33.03397797 58.13382324 33.41951843 58.80444336 33.81674194 C60.13091934 34.60234126 61.45741689 35.38790415 62.78393555 36.1734314 C74.91267538 43.35758222 87.00831634 50.58847329 99 58 C98.67 61.3 98.34 64.6 98 68 C89.54662817 68.4488516 81.82521892 68.05667455 73.5625 66.1875 C72.83047363 66.02217773 72.09844727 65.85685547 71.34423828 65.68652344 C69.21251503 65.17305324 67.10773047 64.60413281 65 64 C64.25049072 63.79415283 63.50098145 63.58830566 62.72875977 63.3762207 C60.5390625 62.6875 60.5390625 62.6875 57 61 C55.95703125 58.58203125 55.95703125 58.58203125 55.8125 55.8125 C54.99488693 48.69832652 52.36128604 43.87830515 47 39.125 C41.17680519 35.00023701 36.06954401 33.90485625 29 35 C20.92370729 37.76320958 15.18393456 41.51295921 11 49 C10.38125 50.093125 9.7625 51.18625 9.125 52.3125 C6.7451747 60.11303849 7.33893001 67.33518497 10.66015625 74.76953125 C13.49964583 79.49649495 17.88146191 82.9783153 23 85 C26.04014283 85.31703001 26.04014283 85.31703001 29.3125 85.25 C30.94638672 85.25773437 30.94638672 85.25773437 32.61328125 85.265625 C36.03124663 85.14806797 36.03124663 85.14806797 39.19140625 83.84765625 C44.69801884 82.62208196 49.20685787 83.89828471 54.625 85.1875 C55.64851563 85.40986328 56.67203125 85.63222656 57.7265625 85.86132812 C62.76136321 87.00530303 66.60090695 88.24129418 71 91 C73.08630711 91.58895073 73.08630711 91.58895073 75.1875 91.875 C80.61682357 92.93527194 85.17831886 95.36267128 90 98 C87.53042194 104.5241092 84.67467965 110.78245433 80 116 C76.88948161 116.7819739 74.64792626 116.60697641 71.484375 116.1875 C68.74332375 115.71637049 68.74332375 115.71637049 66.0625 118.0625 C65.381875 118.701875 64.70125 119.34125 64 120 C60.31020848 119.6293918 57.39290992 117.6338917 54.25 115.78125 C53.68853271 115.45181396 53.12706543 115.12237793 52.54858398 114.78295898 C50.69597764 113.69377124 48.84794085 112.59708185 47 111.5 C45.69414845 110.72958369 44.38815661 109.95940514 43.08203125 109.18945312 C33.76887544 103.68855065 24.51679411 98.08901899 15.28497314 92.45297241 C3.71899297 85.39317297 -7.95885094 78.53284938 -19.6640625 71.70703125 C-21.27015381 70.75872437 -21.27015381 70.75872437 -22.90869141 69.79125977 C-24.93043708 68.61975858 -26.97431938 67.4854586 -29.04052734 66.39428711 C-31.51839956 65.05016037 -33.80772975 63.77164979 -36 62 C-36.8359375 58.96484375 -36.8359375 58.96484375 -36.375 55.9375 C-35.82548773 51.09245375 -35.82548773 51.09245375 -38 46.75 C-38.66 46.1725 -39.32 45.595 -40 45 C-38.49064244 40.87506563 -36.46490155 37.17627812 -34.2265625 33.4140625 C-33.67903824 32.48404922 -33.67903824 32.48404922 -33.12045288 31.5352478 C-31.95857159 29.56321445 -30.7919457 27.59403989 -29.625 25.625 C-28.46625795 23.66248947 -27.30849884 21.69940212 -26.15097046 19.73617554 C-25.43285115 18.51900913 -24.71385786 17.30235774 -23.99380493 16.08633423 C-21.62333736 12.07911695 -19.30217353 8.04665373 -17 4 C-16.34773438 4.11859375 -15.69546875 4.2371875 -15.0234375 4.359375 C-8.94494981 5.35677703 -8.94494981 5.35677703 -3.4375 3.125 C-1.68261775 1.60119172 -1.68261775 1.60119172 0 0 Z " fill="#627F4D" transform="translate(204,41)"/>
<path d="M0 0 C-0.57931908 4.39583062 -2.21010306 7.37239876 -4.53515625 11.12109375 C-4.89210068 11.70230484 -5.2490451 12.28351593 -5.61680603 12.88233948 C-6.75837741 14.73848415 -7.90986736 16.58820797 -9.0625 18.4375 C-12.06084146 23.27997427 -15.04583136 28.13043392 -18 33 C-18.38344574 33.63197296 -18.76689148 34.26394592 -19.16195679 34.91506958 C-20.29173954 36.79077055 -21.40596545 38.67483853 -22.515625 40.5625 C-23.49644043 42.21765625 -23.49644043 42.21765625 -24.49707031 43.90625 C-26.61546198 48.26691588 -27.23879869 52.2891941 -26 57 C-23.99753146 60.92529345 -22.15883957 62.89521187 -18.36328125 65.1015625 C-17.4096167 65.66447998 -16.45595215 66.22739746 -15.47338867 66.80737305 C-14.43029541 67.40718994 -13.38720215 68.00700684 -12.3125 68.625 C-10.63391757 69.61076341 -8.9553479 70.59654882 -7.27723694 71.58311462 C-5.4647318 72.64636573 -3.6491416 73.70419102 -1.83300781 74.76123047 C2.14739969 77.0813631 6.11037349 79.43029812 10.0703125 81.78515625 C10.74769974 82.18797821 11.42508698 82.59080017 12.1230011 83.00582886 C13.49678112 83.82296381 14.87050437 84.64019421 16.24417114 85.45751953 C19.00155836 87.09726478 21.76069671 88.73405072 24.51985168 90.37081909 C37.92012761 98.32058415 51.27798542 106.33807382 64.59326172 114.42944336 C67.04986047 115.92197109 69.50859444 117.41087978 71.96923828 118.89672852 C76.94113021 121.90211131 81.90498427 124.90852282 86.76953125 128.0859375 C95.15310983 133.60977221 95.15310983 133.60977221 104.91796875 134.55859375 C111.04688729 132.91424975 113.93596716 129.18528635 117 124 C118.37761206 128.13283619 117.03964348 129.95801703 115.25 133.7734375 C113.22732865 137.37632084 110.70808463 140.14595768 107 142 C98.23242191 143.01687003 91.09035678 140.76663387 82.96484375 137.70703125 C81.70395267 137.24697976 80.44247522 136.78853271 79.1804657 136.33155823 C75.79457101 135.10072612 72.41687355 133.8487382 69.04035187 132.59246063 C65.5013465 131.27982188 61.95526374 129.98660216 58.40966797 128.69189453 C54.02010528 127.0875406 49.63141019 125.48093717 45.24603271 123.86517334 C35.93517689 120.43469128 26.61029004 117.04663548 17.2681675 113.70223808 C15.24877954 112.97921228 13.22975487 112.25518173 11.21086121 111.53077698 C10.55693925 111.29614841 9.90301729 111.06151983 9.22927952 110.8197813 C7.92904767 110.35322919 6.62881763 109.88667206 5.32858944 109.42010975 C2.18353171 108.29182753 -0.9621125 107.16525767 -4.1086731 106.04116821 C-7.60327484 104.79122831 -11.09490583 103.53330814 -14.5859375 102.2734375 C-15.5998909 101.91286758 -16.6138443 101.55229767 -17.65852356 101.18080139 C-35.34150856 94.77047606 -35.34150856 94.77047606 -38.625 89.6875 C-41.90407193 80.89362528 -38.93844746 73.91897803 -35.8359375 65.49609375 C-35.19140121 63.701968 -35.19140121 63.701968 -34.53384399 61.87159729 C-33.39120844 58.69942459 -32.23750245 55.53173387 -31.07849121 52.36553955 C-29.92061483 49.19217873 -28.77988102 46.01266788 -27.63671875 42.83398438 C-25.49345328 36.89089613 -23.32198799 30.95890849 -21.12536621 25.03533936 C-20.42729913 23.15251183 -19.73242505 21.26849314 -19.04260254 19.38262939 C-18.26403061 17.26105706 -17.46858098 15.14699612 -16.6640625 13.03515625 C-16.25881348 11.95758057 -15.85356445 10.88000488 -15.43603516 9.76977539 C-13.29995859 5.64978413 -10.56953942 2.80391044 -6.4375 0.6875 C-4 0 -4 0 0 0 Z " fill="#617E4D" transform="translate(173,45)"/>
<path d="M0 0 C2.59347053 0.51108224 5.08054931 1.06681436 7.625 1.75 C8.31432617 1.93119385 9.00365234 2.1123877 9.71386719 2.29907227 C11.12536384 2.67435629 12.53554407 3.05462802 13.94433594 3.43994141 C15.88826143 3.96955721 17.83852653 4.47574243 19.7890625 4.98046875 C20.93117187 5.29628906 22.07328125 5.61210937 23.25 5.9375 C24.26578125 6.21464844 25.2815625 6.49179687 26.328125 6.77734375 C29.74560167 8.34118907 31.15736829 9.72066287 33 13 C32.67879916 19.509135 30.22999383 25.27622577 27.921875 31.3125 C27.51342346 32.39901855 27.10497192 33.48553711 26.68414307 34.60498047 C25.37945398 38.07255467 24.06529555 41.53643662 22.75 45 C21.03261401 49.54022319 19.31997633 54.08221678 17.609375 58.625 C16.99322327 60.25477783 16.99322327 60.25477783 16.36462402 61.91748047 C13.70287904 68.99703357 11.24345635 76.10368091 9.04394531 83.33984375 C8.01170089 85.97018407 7.23457337 87.30708664 5 89 C-0.86568198 89.95368606 -6.45710229 88.92796442 -12 87 C-12 86.34 -12 85.68 -12 85 C-12.58007812 84.98582031 -13.16015625 84.97164063 -13.7578125 84.95703125 C-17.82817169 84.70851097 -21.18461686 84.35143088 -24.5625 81.9375 C-27.15724204 78.81050318 -27.60552655 77.20380959 -27.40625 73.16015625 C-27 71 -27 71 -26.05859375 68.24633789 C-25.04418442 65.13549821 -24.31361095 62.10183836 -23.65625 58.8984375 C-23.39972656 57.6722168 -23.14320313 56.44599609 -22.87890625 55.18261719 C-22.7392041 54.51387573 -22.59950195 53.84513428 -22.45556641 53.15612793 C-21.05425097 46.52391074 -19.56825854 39.9095925 -18.09326172 33.29345703 C-17.69547783 31.504248 -17.29999529 29.71452587 -16.90673828 27.92431641 C-16.32879119 25.29463322 -15.74329272 22.66672822 -15.15625 20.0390625 C-14.98428101 19.24932037 -14.81231201 18.45957825 -14.63513184 17.64590454 C-10.47059421 -0.82037645 -10.47059421 -0.82037645 0 0 Z " fill="#3B3A3A" transform="translate(196,387)"/>
<path d="M0 0 C1.67315082 4.44045704 2.3324958 8.34059891 2.57836914 13.07177734 C2.6349192 14.09257133 2.6349192 14.09257133 2.69261169 15.13398743 C2.81451644 17.36763298 2.92478703 19.60169491 3.03515625 21.8359375 C3.11877534 23.40007798 3.20321554 24.96417476 3.28843689 26.52822876 C3.51053942 30.63799303 3.72316789 34.74818928 3.93328857 38.85858154 C4.27068563 45.42945701 4.62211391 51.99959275 4.97427177 58.5696907 C5.09529112 60.85379819 5.21204789 63.13809228 5.32814026 65.42245483 C5.40233883 66.83811948 5.47662916 68.25377932 5.55102539 69.66943359 C5.61383194 70.89487885 5.67663849 72.1203241 5.74134827 73.38290405 C5.93329959 76.06723311 6.2330622 78.61688669 6.6337738 81.26846313 C7 85 7 85 5.30859375 88.03515625 C0.22148886 91.05618784 -4.21253025 90.12010574 -9.9375 89.4375 C-11.00935547 89.33630859 -12.08121094 89.23511719 -13.18554688 89.13085938 C-24.32298449 87.99297875 -24.32298449 87.99297875 -28 86 C-30.22902399 80.8820269 -30.65646476 75.59064959 -31.21875 70.09765625 C-31.32215698 69.14289902 -31.42556396 68.18814178 -31.53210449 67.20445251 C-31.86099767 64.15776755 -32.18091438 61.11022631 -32.5 58.0625 C-32.92424276 54.07391202 -33.35209013 50.08571793 -33.78125 46.09765625 C-33.88435486 45.13548187 -33.98745972 44.1733075 -34.09368896 43.18197632 C-35.03335592 34.50044907 -36.13001564 25.84783018 -37.41503906 17.21020508 C-38.21637824 11.32456737 -38.21637824 11.32456737 -36 8 C-32.05385623 6.32014057 -27.94302592 5.12491005 -23.84350586 3.87353516 C-21.83138268 3.25579714 -19.82910102 2.61168206 -17.82617188 1.96484375 C-16.53696718 1.56346611 -15.24726704 1.1636757 -13.95703125 0.765625 C-12.79147705 0.40243164 -11.62592285 0.03923828 -10.42504883 -0.33496094 C-6.63810466 -1.07026894 -3.7621602 -0.74913584 0 0 Z " fill="#8A9AE9" transform="translate(420,86)"/>
<path d="M0 0 C1.86853854 1.42902815 3.67547213 2.91261194 5.47802734 4.42382812 C6.77591301 5.48827406 8.0754067 6.55076222 9.37646484 7.61132812 C10.01165039 8.12953125 10.64683594 8.64773437 11.30126953 9.18164062 C15.46435688 12.51385512 19.8120346 15.59651517 24.16552734 18.67382812 C23.16552734 20.67382812 23.16552734 20.67382812 21.46347046 21.28845215 C20.72496857 21.45880981 19.98646667 21.62916748 19.22558594 21.8046875 C18.39161285 22.00066528 17.55763977 22.19664307 16.69839478 22.39855957 C15.7877829 22.60283569 14.87717102 22.80711182 13.93896484 23.01757812 C12.99652924 23.23506714 12.05409363 23.45255615 11.08309937 23.67663574 C1.01470393 25.97976175 -9.09390891 28.08983441 -19.20947266 30.17382812 C-22.96629828 30.95226067 -26.72268126 31.73281625 -30.47900391 32.51367188 C-31.38224899 32.70118515 -32.28549408 32.88869843 -33.21611023 33.08189392 C-41.37925188 34.77965442 -49.52782791 36.53960815 -57.66601562 38.35351562 C-63.63235583 39.67382812 -63.63235583 39.67382812 -65.83447266 39.67382812 C-66.16447266 40.33382812 -66.49447266 40.99382812 -66.83447266 41.67382812 C-66.9952832 41.10051758 -67.15609375 40.52720703 -67.32177734 39.93652344 C-68.07303837 37.26477774 -68.82819145 34.59415715 -69.58447266 31.92382812 C-69.85525635 30.96549072 -70.12604004 30.00715332 -70.4050293 29.01977539 C-72.14898875 22.90532437 -74.03782926 16.90721695 -76.26806641 10.95117188 C-76.90076611 8.40728271 -76.54716602 7.14664335 -75.83447266 4.67382812 C-68.6889026 3.2308176 -61.53932236 1.80909611 -54.38671875 0.40136719 C-51.95933757 -0.07888749 -49.53287658 -0.56381972 -47.10742188 -1.05371094 C-11.41695884 -8.25351616 -11.41695884 -8.25351616 0 0 Z " fill="#F9990E" transform="translate(324.83447265625,207.326171875)"/>
<path d="M0 0 C0.57462915 4.30436972 1.14411877 8.60937981 1.70898438 12.91503906 C1.90160442 14.37778793 2.0955948 15.84035705 2.29101562 17.30273438 C2.5726736 19.41229511 2.84929557 21.52246643 3.125 23.6328125 C3.29257813 24.90012207 3.46015625 26.16743164 3.6328125 27.47314453 C3.96700388 30.68307056 4.06941863 33.77637247 4 37 C-0.40501119 38.55326586 -4.77799158 39.6851095 -9.34375 40.6640625 C-10.05415436 40.81733505 -10.76455872 40.9706076 -11.49649048 41.12852478 C-13.83023462 41.63096542 -16.16502876 42.12829549 -18.5 42.625 C-20.13137522 42.97374805 -21.76272243 43.32262713 -23.39404297 43.67163086 C-26.82185051 44.40430583 -30.25017644 45.13450487 -33.67871094 45.86376953 C-38.15760483 46.81790046 -42.63336747 47.78595165 -47.1083374 48.75830078 C-50.60315636 49.51644916 -54.09938455 50.26794487 -57.59594727 51.01800537 C-59.2789642 51.38035198 -60.9614247 51.74529306 -62.64331055 52.112854 C-64.99247041 52.62554338 -67.34353362 53.12838977 -69.6953125 53.62890625 C-70.3936319 53.78366928 -71.09195129 53.93843231 -71.81143188 54.09788513 C-75.05731535 54.77848017 -76.78947369 55.07017544 -80 54 C-77.9965666 50.3536353 -75.98826947 46.71000212 -73.97583008 43.06860352 C-73.29486844 41.83493095 -72.61513734 40.60057819 -71.93676758 39.36547852 C-56.96268104 12.11064595 -56.96268104 12.11064595 -44 8 C-40.72194918 7.19327365 -37.42160176 6.56493684 -34.1015625 5.95703125 C-33.18539154 5.78370773 -32.26922058 5.61038422 -31.32528687 5.43180847 C-29.40482067 5.06977587 -27.48371455 4.71112286 -25.56201172 4.35571289 C-22.61157602 3.81001718 -19.66310808 3.25456248 -16.71484375 2.69726562 C-14.84385516 2.3457939 -12.97276489 1.99486294 -11.1015625 1.64453125 C-10.21828278 1.47895218 -9.33500305 1.31337311 -8.42495728 1.14277649 C-7.61005829 0.99229355 -6.7951593 0.84181061 -5.95556641 0.68676758 C-5.23801178 0.55369705 -4.52045715 0.42062653 -3.78115845 0.28352356 C-2 0 -2 0 0 0 Z " fill="#F9980E" transform="translate(200,222)"/>
<path d="M0 0 C1.42976783 4.35813007 2.85377068 8.71808526 4.27246094 13.07983398 C4.75590503 14.56342333 5.24092125 16.04650134 5.72753906 17.52905273 C6.42666824 19.65996993 7.12012543 21.79266126 7.8125 23.92578125 C8.03123779 24.58838455 8.24997559 25.25098785 8.4753418 25.93367004 C9.38547586 28.75405555 10 31.01399134 10 34 C4.23956404 35.39291117 -1.52218537 36.78021171 -7.28515625 38.16259766 C-9.24059424 38.63245668 -11.1956814 39.10377848 -13.15039062 39.57666016 C-33.98342367 44.61450506 -33.98342367 44.61450506 -44 46 C-44.57462915 41.69563028 -45.14411877 37.39062019 -45.70898438 33.08496094 C-45.90160442 31.62221207 -46.0955948 30.15964295 -46.29101562 28.69726562 C-46.5726736 26.58770489 -46.84929557 24.47753357 -47.125 22.3671875 C-47.29257813 21.09987793 -47.46015625 19.83256836 -47.6328125 18.52685547 C-47.96700388 15.31692944 -48.06941863 12.22362753 -48 9 C-40.00222393 7.32257933 -32.00207481 5.65679105 -24 4 C-22.99839844 3.7922998 -21.99679688 3.58459961 -20.96484375 3.37060547 C-18.22747872 2.80497647 -15.48899841 2.24515884 -12.75 1.6875 C-11.9240332 1.51637695 -11.09806641 1.34525391 -10.24707031 1.16894531 C-6.73795929 0.46004888 -3.59524232 0 0 0 Z " fill="#92210F" transform="translate(248,213)"/>
<path d="M0 0 C5.50889876 3.12878632 10.54865489 8.53563886 12.8125 14.5 C13.0078125 17.515625 13.0078125 17.515625 12.9375 20.75 C12.91945313 21.82765625 12.90140625 22.9053125 12.8828125 24.015625 C12.85960937 24.83546875 12.83640625 25.6553125 12.8125 26.5 C11.86890625 26.59474609 11.86890625 26.59474609 10.90625 26.69140625 C4.81308554 27.56316924 0.70866771 29.18516028 -3.75 33.5 C-6.27226203 37.00923413 -5.86795547 39.28117608 -5.1875 43.5 C-4.30535113 46.38214887 -4.30535113 46.38214887 -3.1875 48.5 C-8.41703851 51.6605706 -14.29115864 51.18414487 -20.1875 50.5 C-26.39941899 48.19525936 -30.9985628 43.5071673 -34.15625 37.7265625 C-37.08983208 31.07167723 -37.48211733 24.21399085 -35.0859375 17.33984375 C-30.92248401 8.35613527 -25.77331075 2.9171734 -16.578125 -0.8046875 C-10.90050107 -2.45602256 -5.45159676 -2.35744725 0 0 Z " fill="#FBFBFA" transform="translate(247.1875,76.5)"/>
<path d="M0 0 C3.59625736 1.35560863 6.86262467 2.96128802 10.19140625 4.87890625 C11.20428711 5.46172363 12.21716797 6.04454102 13.26074219 6.64501953 C14.8951123 7.59417236 14.8951123 7.59417236 16.5625 8.5625 C17.70493164 9.22362793 18.84736328 9.88475586 20.02441406 10.56591797 C29.680199 16.1706128 39.23107955 21.94340021 48.75537109 27.76806641 C57.27831748 32.97764674 65.85996795 38.07886883 74.51464844 43.06689453 C75.35930664 43.55915527 76.20396484 44.05141602 77.07421875 44.55859375 C77.81244873 44.98454834 78.55067871 45.41050293 79.3112793 45.84936523 C81 47 81 47 82 49 C78.5781707 48.38219282 75.41249952 47.52701762 72.14404297 46.34521484 C71.20470917 46.00751068 70.26537537 45.66980652 69.2975769 45.3218689 C68.2892984 44.95526154 67.2810199 44.58865417 66.2421875 44.2109375 C65.18452179 43.82942535 64.12685608 43.44791321 63.03713989 43.05484009 C59.64855308 41.83153737 56.26178851 40.60327144 52.875 39.375 C50.64985197 38.57130335 48.42459261 37.76791487 46.19921875 36.96484375 C36.12647318 33.32663152 26.06094522 29.66864598 16.0078125 25.9765625 C15.21800995 25.68719818 14.4282074 25.39783386 13.61447144 25.09970093 C8.23793205 23.11896602 8.23793205 23.11896602 6 22 C5.65625 19.85546875 5.65625 19.85546875 5.5 17.1875 C5.28964146 13.62718174 4.91566637 11.05012128 3 8 C0.9664052 6.73195434 0.9664052 6.73195434 -1 6 C-0.67 4.02 -0.34 2.04 0 0 Z " fill="#3F602B" transform="translate(151,109)"/>
<path d="M0 0 C0.66 0 1.32 0 2 0 C1.979375 0.969375 1.95875 1.93875 1.9375 2.9375 C1.64381501 5.87465895 1.64381501 5.87465895 3 7 C3.04063832 8.66617115 3.042721 10.33388095 3 12 C2.34 11.01 1.68 10.02 1 9 C-0.25 7.25 -0.25 7.25 -2 6 C-4.54230847 5.58320703 -4.54230847 5.58320703 -7 6 C-9.26298437 7.86963998 -9.26298437 7.86963998 -9.4375 10.8125 C-8.86348785 14.99458853 -7.14699608 16.31353993 -4 19 C-3 20 -3 20 -2.6875 22.75 C-3.08289583 26.86211662 -3.89457429 28.2827525 -7 31 C-9.67512684 31.61294168 -12.25255949 31.77479996 -15 32 C-15.33 32.66 -15.66 33.32 -16 34 C-16.99 34 -17.98 34 -19 34 C-18.814375 33.2575 -18.62875 32.515 -18.4375 31.75 C-18.00796892 29.05009037 -18.14877026 27.55368923 -19 25 C-18.34 25.33 -17.68 25.66 -17 26 C-17 26.66 -17 27.32 -17 28 C-12.9899066 28.17864631 -12.9899066 28.17864631 -9 28 C-6.84059265 26.19510474 -6.84059265 26.19510474 -6.5 23.8125 C-7.0678321 20.61844443 -7.83271754 19.87290489 -10 17.5625 C-12.25279173 15.10151188 -12.95044774 14.2477613 -13.625 10.875 C-12.81306538 7.14010074 -11.92776384 5.48859927 -9 3 C-6.19811145 2.57757787 -3.8580389 2.76183009 -1 3 C-0.67 2.01 -0.34 1.02 0 0 Z " fill="#6C885A" transform="translate(244,84)"/>
<path d="M0 0 C3.96 0 7.92 0 12 0 C11.896875 1.5675 11.79375 3.135 11.6875 4.75 C11.68298586 8.97438099 11.68298586 8.97438099 13.9375 12.5 C17.86131865 14.42187036 21.70734981 15.28923439 26 16 C26 16.66 26 17.32 26 18 C19.24988194 18.50000875 13.91811548 17.39450436 8 14 C4.47104766 10.8704147 1.86004983 7.34011627 0 3 C0 2.01 0 1.02 0 0 Z " fill="#F8A93A" transform="translate(158,456)"/>
<path d="M0 0 C2.375 1.0625 2.375 1.0625 4 3 C4.57349318 6.9427656 4.5664946 9.09360864 2.4375 12.5 C0 14 0 14 -3.625 13.9375 C-7 13 -7 13 -9 10 C-9.54170249 3.93293207 -9.54170249 3.93293207 -7.875 1.0625 C-5.09808875 -0.51108304 -3.13770673 -0.38420899 0 0 Z " fill="#F8F9F7" transform="translate(196,69)"/>
<path d="M0 0 C3.4375 0.75 3.4375 0.75 5.4375 2.75 C5.98337156 8.75458716 5.98337156 8.75458716 4.375 11.6875 C1.28256242 13.38335287 -1.11764741 13.18060657 -4.5625 12.75 C-6.5625 11.1875 -6.5625 11.1875 -7.5625 8.75 C-7.4375 5.125 -7.4375 5.125 -6.5625 1.75 C-3.5625 -0.25 -3.5625 -0.25 0 0 Z " fill="#FBFBFE" transform="translate(403.5625,149.25)"/>
<path d="M0 0 C1.9375 1.0625 1.9375 1.0625 3 3 C2.875 6.5625 2.875 6.5625 2 10 C-1 12 -1 12 -3.5 11.8125 C-6.23145737 10.92477635 -7.39120004 10.37086309 -9 8 C-9.42822025 5.14519831 -9.40659584 3.65507108 -7.875 1.1875 C-5.12844028 -0.55198782 -3.18153026 -0.39769128 0 0 Z " fill="#F4F4F4" transform="translate(194,450)"/>
<path d="M0 0 C5.09882455 1.5280389 9.65665659 3.71036856 14.375 6.125 C15.11105469 6.49753906 15.84710938 6.87007813 16.60546875 7.25390625 C18.40550358 8.1656122 20.20301402 9.08229932 22 10 C21.67 11.32 21.34 12.64 21 14 C12.23669969 11.82471269 5.22145236 7.47094598 0 0 Z " fill="#FEADB0" transform="translate(301,449)"/>
<path d="M0 0 C5.00113594 1.48008696 9.32915597 3.6318336 13.875 6.125 C14.56335938 6.49753906 15.25171875 6.87007813 15.9609375 7.25390625 C17.64294798 8.16499526 19.32180436 9.08190315 21 10 C20.34 11.32 19.68 12.64 19 14 C11.58369626 10.77955913 5.64118331 6.83194796 0 1 C0 0.67 0 0.34 0 0 Z " fill="#FEACAF" transform="translate(289,461)"/>
<path d="M0 0 C6.27 2.97 12.54 5.94 19 9 C19 10.32 19 11.64 19 13 C14.36195179 12.49895538 11.56196175 11.3804184 7.8125 8.625 C6.97332031 8.01914062 6.13414062 7.41328125 5.26953125 6.7890625 C3.34918199 5.27525878 1.59065559 3.85490131 0 2 C0 1.34 0 0.68 0 0 Z " fill="#FEADB1" transform="translate(270,472)"/>
<path d="M0 0 C0.33 0.66 0.66 1.32 1 2 C3.05376006 2.61365708 3.05376006 2.61365708 5.4375 3 C9.78082192 3.78082192 9.78082192 3.78082192 12 6 C5.07 7.485 5.07 7.485 -2 9 C-1.34 6.03 -0.68 3.06 0 0 Z " fill="#F2A63B" transform="translate(207,460)"/>
<path d="M0 0 C0.33 1.98 0.66 3.96 1 6 C-2.63 5.67 -6.26 5.34 -10 5 C-10 4.34 -10 3.68 -10 3 C-6.27034861 0.96564469 -4.33094958 0 0 0 Z " fill="#BD4024" transform="translate(300,425)"/>
<path d="M0 0 C0.99 0.495 0.99 0.495 2 1 C2 1.66 2 2.32 2 3 C4.97 3.495 4.97 3.495 8 4 C5.6875 6.5 5.6875 6.5 3 9 C2.01 9 1.02 9 0 9 C0.185625 8.2575 0.37125 7.515 0.5625 6.75 C0.99203108 4.05009037 0.85122974 2.55368923 0 0 Z " fill="#789267" transform="translate(225,109)"/>
<path d="M0 0 C0.66 0 1.32 0 2 0 C1.979375 0.969375 1.95875 1.93875 1.9375 2.9375 C1.64381501 5.87465895 1.64381501 5.87465895 3 7 C3.04063832 8.66617115 3.042721 10.33388095 3 12 C2.34 11.01 1.68 10.02 1 9 C0.01904252 7.98131338 -0.97702078 6.97648017 -2 6 C-1.34 4.02 -0.68 2.04 0 0 Z " fill="#779166" transform="translate(244,84)"/>
<path d="M0 0 C2.97 0.33 5.94 0.66 9 1 C9 1.66 9 2.32 9 3 C6.36 3 3.72 3 1 3 C0.67 2.01 0.34 1.02 0 0 Z " fill="#EEA234" transform="translate(175,471)"/>
</svg>
